{"extensionsUsed" : ["KHR_materials_specular", "KHR_materials_ior"], "accessors" : [{"bufferView" : 0, "byteOffset" : 0, "componentType" : 5123, "count" : 36, "type" : "SCALAR", "max" : [35], "min" : [0]}, {"bufferView" : 1, "byteOffset" : 0, "componentType" : 5126, "count" : 36, "type" : "VEC3", "max" : [225.49948120117188, 9.499988555908203, 328.4996032714844], "min" : [-225.50027465820312, -9.500033378601074, -422.49981689453125], "name" : "POSITION"}, {"bufferView" : 1, "byteOffset" : 12, "componentType" : 5126, "count" : 36, "type" : "VEC3", "max" : [1.0000044107437134, 1.0000044107437134, 1.0000044107437134], "min" : [-1.0000044107437134, -1.0000044107437134, -1.0000044107437134], "name" : "NORMAL"}, {"bufferView" : 0, "byteOffset" : 72, "componentType" : 5123, "count" : 84, "type" : "SCALAR", "max" : [83], "min" : [0]}, {"bufferView" : 2, "byteOffset" : 0, "componentType" : 5126, "count" : 84, "type" : "VEC3", "max" : [705.000244140625, 385.000244140625, 223.49974060058594], "min" : [-235.0001220703125, -385.00018310546875, -358.0003967285156], "name" : "POSITION"}, {"bufferView" : 2, "byteOffset" : 12, "componentType" : 5126, "count" : 84, "type" : "VEC3", "max" : [1.0000044107437134, 1.0000044107437134, 1.0000044107437134], "min" : [-1.0000044107437134, -1.0000044107437134, -1.0000044107437134], "name" : "NORMAL"}, {"bufferView" : 0, "byteOffset" : 240, "componentType" : 5123, "count" : 588, "type" : "SCALAR", "max" : [563], "min" : [0]}, {"bufferView" : 3, "byteOffset" : 0, "componentType" : 5126, "count" : 564, "type" : "VEC3", "max" : [2596, 15.684206008911133, 80.2001953125], "min" : [-2596, -4.7683701609457785E-07, 0], "name" : "POSITION"}, {"bufferView" : 3, "byteOffset" : 12, "componentType" : 5126, "count" : 564, "type" : "VEC3", "max" : [1.0000044107437134, 1.0000044107437134, 1.0000044107437134], "min" : [-1.0000044107437134, -1.0000039339065552, -1.0000044107437134], "name" : "NORMAL"}, {"bufferView" : 0, "byteOffset" : 1416, "componentType" : 5123, "count" : 9312, "type" : "SCALAR", "max" : [8767], "min" : [0]}, {"bufferView" : 4, "byteOffset" : 0, "componentType" : 5126, "count" : 8768, "type" : "VEC3", "max" : [233.49948120117188, 941.9996337890625, 23.999975204467773], "min" : [-233.50027465820312, 174.99972534179688, -0.00010849720274563879], "name" : "POSITION"}, {"bufferView" : 4, "byteOffset" : 12, "componentType" : 5126, "count" : 8768, "type" : "VEC3", "max" : [0.9984154105186462, 0.9984154105186462, 0.9969574213027954], "min" : [-0.9984154105186462, -0.9984320998191833, -0.9969497919082642], "name" : "NORMAL"}, {"bufferView" : 0, "byteOffset" : 20040, "componentType" : 5123, "count" : 36, "type" : "SCALAR", "max" : [35], "min" : [0]}, {"bufferView" : 5, "byteOffset" : 0, "componentType" : 5126, "count" : 36, "type" : "VEC3", "max" : [1905, 290.74969482421875, 40], "min" : [-1905, -309.25006103515625, 0], "name" : "POSITION"}, {"bufferView" : 5, "byteOffset" : 12, "componentType" : 5126, "count" : 36, "type" : "VEC3", "max" : [1.0000044107437134, 1.0000044107437134, 1.0000044107437134], "min" : [-1.0000044107437134, -1.0000044107437134, -1.0000044107437134], "name" : "NORMAL"}, {"bufferView" : 0, "byteOffset" : 20112, "componentType" : 5123, "count" : 32256, "type" : "SCALAR", "max" : [27426], "min" : [0]}, {"bufferView" : 6, "byteOffset" : 0, "componentType" : 5126, "count" : 27427, "type" : "VEC3", "max" : [1.3507000207901, 3.0199999809265137, 7.472499847412109], "min" : [-1.3507000207901, 0.00930000003427267, -7.472499847412109], "name" : "POSITION"}, {"bufferView" : 6, "byteOffset" : 12, "componentType" : 5126, "count" : 27427, "type" : "VEC3", "max" : [1.000003457069397, 1.0000044107437134, 1.0000044107437134], "min" : [-1.000003457069397, -1.0000044107437134, -1.0000044107437134], "name" : "NORMAL"}, {"bufferView" : 6, "byteOffset" : 24, "componentType" : 5126, "count" : 27427, "type" : "VEC2", "max" : [0.927299976348877, 0.9887999892234802], "min" : [0.006399999838322401, 0.006600022315979004], "name" : "TEXCOORD_0"}], "asset" : {"generator" : "Aspose.3D 23.4.0", "version" : "2.0"}, "buffers" : [{"uri" : "data:application/octet-stream;base64,", "byteLength" : 1358188}], "bufferViews" : [{"buffer" : 0, "byteOffset" : 0, "byteLength" : 84624, "target" : 34963}, {"buffer" : 0, "byteOffset" : 84628, "byteLength" : 864, "byteStride" : 24, "target" : 34962}, {"buffer" : 0, "byteOffset" : 85496, "byteLength" : 2016, "byteStride" : 24, "target" : 34962}, {"buffer" : 0, "byteOffset" : 87516, "byteLength" : 14112, "byteStride" : 24, "target" : 34962}, {"buffer" : 0, "byteOffset" : 101632, "byteLength" : 223488, "byteStride" : 24, "target" : 34962}, {"buffer" : 0, "byteOffset" : 325124, "byteLength" : 864, "byteStride" : 24, "target" : 34962}, {"buffer" : 0, "byteOffset" : 325992, "byteLength" : 1032192, "byteStride" : 32, "target" : 34962}], "materials" : [{"name" : "Wall_Paint", "pbrMetallicRoughness" : {"baseColorFactor" : [0.016807332634925842, 0.02842600829899311, 0.03954623267054558, 1], "metallicFactor" : 0, "roughnessFactor" : 0.6000000238418579}, "emissiveFactor" : [0, 0, 0], "alphaMode" : "OPAQUE", "doubleSided" : false}, {"name" : "Wall_Paint.001", "pbrMetallicRoughness" : {"baseColorFactor" : [0.016807332634925842, 0.02842600829899311, 0.03954623267054558, 1], "metallicFactor" : 0, "roughnessFactor" : 0.6000000238418579}, "emissiveFactor" : [0, 0, 0], "alphaMode" : "OPAQUE", "doubleSided" : false}, {"name" : "Wall_Paint.002", "pbrMetallicRoughness" : {"baseColorFactor" : [0.016807332634925842, 0.02842600829899311, 0.03954623267054558, 1], "metallicFactor" : 0, "roughnessFactor" : 0.6000000238418579}, "emissiveFactor" : [0, 0, 0], "alphaMode" : "OPAQUE", "doubleSided" : false}, {"name" : "Wall_Paint.003", "pbrMetallicRoughness" : {"baseColorFactor" : [0.016807332634925842, 0.02842600829899311, 0.03954623267054558, 1], "metallicFactor" : 0, "roughnessFactor" : 0.6000000238418579}, "emissiveFactor" : [0, 0, 0], "alphaMode" : "OPAQUE", "doubleSided" : false}, {"name" : "Wall_Paint.004", "pbrMetallicRoughness" : {"baseColorFactor" : [0.8069514632225037, 0.8148458003997803, 0.7912980914115906, 1], "metallicFactor" : 0, "roughnessFactor" : 0.6000000238418579}, "emissiveFactor" : [0, 0, 0], "alphaMode" : "OPAQUE", "doubleSided" : false}, {"name" : "10407_Door_Knobs__Pulls_v1_Diffuse_SG", "extensions" : {"KHR_materials_specular" : {"specularColorFactor" : [0, 0, 0]}, "KHR_materials_ior" : {"ior" : 1.4500000476837158}}, "pbrMetallicRoughness" : {"baseColorFactor" : [0.05126943811774254, 0.033104751259088516, 0.024157632142305374, 1], "metallicFactor" : 0, "roughnessFactor" : 1}, "emissiveFactor" : [0, 0, 0], "alphaMode" : "OPAQUE", "doubleSided" : true}], "meshes" : [{"primitives" : [{"attributes" : {"POSITION" : 1, "NORMAL" : 2}, "indices" : 0, "material" : 0, "mode" : 4}]}, {"primitives" : [{"attributes" : {"POSITION" : 4, "NORMAL" : 5}, "indices" : 3, "material" : 1, "mode" : 4}]}, {"primitives" : [{"attributes" : {"POSITION" : 7, "NORMAL" : 8}, "indices" : 6, "material" : 2, "mode" : 4}]}, {"primitives" : [{"attributes" : {"POSITION" : 10, "NORMAL" : 11}, "indices" : 9, "material" : 3, "mode" : 4}]}, {"primitives" : [{"attributes" : {"POSITION" : 13, "NORMAL" : 14}, "indices" : 12, "material" : 4, "mode" : 4}]}, {"primitives" : [{"attributes" : {"POSITION" : 16, "NORMAL" : 17, "TEXCOORD_0" : 18}, "indices" : 15, "material" : 5, "mode" : 4}]}], "nodes" : [{"matrix" : [0.0010111017618328333, 0, 0, 0, 0, 0.0010000000474974513, 0, 0, 0, 0, 0.0010000000474974513, 0, 0, 0, 0, 1], "mesh" : 0, "name" : "Box8222913"}, {"children" : [0], "matrix" : [1, 0, 0, 0, 0, -3.029462689596585E-07, -0.9999999657714298, 0, 0, 0.9999999657714298, -3.029462689596585E-07, 0, 0.23834171891212463, 0.6126127243041992, 0.5897292494773865, 1], "name" : "Node #1"}, {"matrix" : [0.0010837308363988996, 0, 0, 0, 0, 0.0010000000474974513, 0, 0, 0, 0, 0.0010000000474974513, 0, -0.015624523162841797, 0, 0, 1], "mesh" : 1, "name" : "Rectangle040"}, {"children" : [2], "matrix" : [0.4663979113101959, 0, 0, 0, 0, 1, 0, 0, 0, 0, 1, 0, 0.12702682614326477, 0.5666146874427795, 0.3567292094230652, 1], "name" : "Node #3"}, {"matrix" : [0.0010106717236340046, 0, 0, 0, 0, 0.0009999999310821295, 0, 0, 0, 0, 0.0009999999310821295, 0, 0, 0, 0.008895689621567726, 1], "mesh" : 2, "name" : "SPR-5052"}, {"children" : [4], "matrix" : [0.09072806686162949, 0, 0, 0, 0, -3.029462689596585E-07, -0.9999999657714298, 0, 0, 0.9999999657714298, -3.029462689596585E-07, 0, 0.2383398860692978, 0.09272728860378265, 0.5587292313575745, 1], "name" : "Node #5"}, {"matrix" : [0.0010111017618328333, 0, 0, 0, 0, 0.0010000000474974513, 0, 0, 0, 0, 0.0010000000474974513, 0, 0, 0.018549248576164246, 0, 1], "mesh" : 3, "name" : "Rectangle067"}, {"children" : [6], "matrix" : [1, 0, 0, 0, 0, 1, 0, 0, 0, 0, 1, 0, 0.23834171891212463, -0.011436522006988525, 0.5802291035652161, 1], "name" : "Node #7"}, {"matrix" : [0.0010106744011864066, 0, 0, 0, 0, 0.0010000000474974513, 0, 0, 0, 0, 0.0010000000474974513, 0, 0, 0, 0, 1], "mesh" : 4, "name" : "Box8222915"}, {"children" : [8], "matrix" : [0.12512443959712982, 0, 0, 0, 0, -3.029462689596585E-07, -0.9999999657714298, 0, 0, 0.9999999657714298, -3.029462689596585E-07, 0, 0.23834000527858734, 0.9508144855499268, 0.28947898745536804, 1], "name" : "Node #9"}, {"matrix" : [0, -0.010000000707805157, 0, 0, 0, 0, 0.010000000707805157, 0, -0.010000000707805157, 0, 0, 0, 0.24003085494041443, 0.8778417110443115, 0.5973260998725891, 1], "mesh" : 5, "name" : "10407_Door_Knobs_ Pulls_v1_max2009_SG_iteration-2"}], "scene" : 0, "scenes" : [{"nodes" : [1, 3, 5, 7, 9, 10]}]}