{"extensionsUsed" : ["KHR_materials_specular", "KHR_materials_ior"], "accessors" : [{"bufferView" : 0, "byteOffset" : 0, "componentType" : 5123, "count" : 36, "type" : "SCALAR", "max" : [35], "min" : [0]}, {"bufferView" : 1, "byteOffset" : 0, "componentType" : 5126, "count" : 36, "type" : "VEC3", "max" : [233.25, 159.99966430664062, 18], "min" : [-233.25, -140.00027465820312, 0], "name" : "POSITION"}, {"bufferView" : 1, "byteOffset" : 12, "componentType" : 5126, "count" : 36, "type" : "VEC3", "max" : [1.0000044107437134, 1.0000044107437134, 1.0000044107437134], "min" : [-1.0000044107437134, -1.0000044107437134, -1.0000044107437134], "name" : "NORMAL"}, {"bufferView" : 1, "byteOffset" : 24, "componentType" : 5126, "count" : 36, "type" : "VEC2", "max" : [1, 0.7251874208450317], "min" : [0, 0.27481257915496826], "name" : "TEXCOORD_0"}, {"bufferView" : 0, "byteOffset" : 72, "componentType" : 5123, "count" : 60, "type" : "SCALAR", "max" : [59], "min" : [0]}, {"bufferView" : 2, "byteOffset" : 0, "componentType" : 5126, "count" : 60, "type" : "VEC3", "max" : [140.3480987548828, 300.0002136230469, 757.5001220703125], "min" : [-439.652587890625, -39.9998779296875, 254.99978637695312], "name" : "POSITION"}, {"bufferView" : 2, "byteOffset" : 12, "componentType" : 5126, "count" : 60, "type" : "VEC3", "max" : [1.0000044107437134, -0, 1.0000044107437134], "min" : [-1.0000044107437134, -1.0000044107437134, -1.0000044107437134], "name" : "NORMAL"}, {"bufferView" : 2, "byteOffset" : 24, "componentType" : 5126, "count" : 60, "type" : "VEC2", "max" : [1, 1], "min" : [0, 0.19971954822540283], "name" : "TEXCOORD_0"}, {"bufferView" : 0, "byteOffset" : 192, "componentType" : 5123, "count" : 24, "type" : "SCALAR", "max" : [23], "min" : [0]}, {"bufferView" : 3, "byteOffset" : 0, "componentType" : 5126, "count" : 24, "type" : "VEC3", "max" : [140.3480987548828, 300.0002746582031, 757.5001831054688], "min" : [-439.652587890625, -39.9996337890625, 254.99978637695312], "name" : "POSITION"}, {"bufferView" : 3, "byteOffset" : 12, "componentType" : 5126, "count" : 24, "type" : "VEC3", "max" : [1.0000044107437134, 1.0000044107437134, 1.0000044107437134], "min" : [0, 0, -1.0000044107437134], "name" : "NORMAL"}, {"bufferView" : 3, "byteOffset" : 24, "componentType" : 5126, "count" : 24, "type" : "VEC2", "max" : [0, 1], "min" : [0, 1], "name" : "TEXCOORD_0"}, {"bufferView" : 0, "byteOffset" : 240, "componentType" : 5123, "count" : 9312, "type" : "SCALAR", "max" : [8844], "min" : [0]}, {"bufferView" : 4, "byteOffset" : 0, "componentType" : 5126, "count" : 8845, "type" : "VEC3", "max" : [249.75, 278.4990234375, 24.00005531311035], "min" : [-249.75, -278.499755859375, -5.425069684861228E-05], "name" : "POSITION"}, {"bufferView" : 4, "byteOffset" : 12, "componentType" : 5126, "count" : 8845, "type" : "VEC3", "max" : [0.9984154105186462, 0.9984154105186462, 0.9969497919082642], "min" : [-0.9984154105186462, -0.9984154105186462, -0.9969465136528015], "name" : "NORMAL"}, {"bufferView" : 0, "byteOffset" : 18864, "componentType" : 5123, "count" : 84, "type" : "SCALAR", "max" : [83], "min" : [0]}, {"bufferView" : 5, "byteOffset" : 0, "componentType" : 5126, "count" : 84, "type" : "VEC3", "max" : [251.25, 174.999267578125, 223.49974060058594], "min" : [-251.25, -385.000244140625, -358.0003662109375], "name" : "POSITION"}, {"bufferView" : 5, "byteOffset" : 12, "componentType" : 5126, "count" : 84, "type" : "VEC3", "max" : [1.0000044107437134, 1.0000044107437134, 1.0000044107437134], "min" : [-1.0000044107437134, -1.0000044107437134, -1.0000044107437134], "name" : "NORMAL"}, {"bufferView" : 0, "byteOffset" : 19032, "componentType" : 5123, "count" : 32256, "type" : "SCALAR", "max" : [27202], "min" : [0]}, {"bufferView" : 6, "byteOffset" : 0, "componentType" : 5126, "count" : 27203, "type" : "VEC3", "max" : [1.3507000207901, 3.0199999809265137, 7.472499847412109], "min" : [-1.3507000207901, 0.00930000003427267, -7.472499847412109], "name" : "POSITION"}, {"bufferView" : 6, "byteOffset" : 12, "componentType" : 5126, "count" : 27203, "type" : "VEC3", "max" : [1.000003457069397, 1.0000044107437134, 1.0000044107437134], "min" : [-1.000003457069397, -1.0000044107437134, -1.0000044107437134], "name" : "NORMAL"}, {"bufferView" : 6, "byteOffset" : 24, "componentType" : 5126, "count" : 27203, "type" : "VEC2", "max" : [0.927299976348877, 0.9887999892234802], "min" : [0.006399999838322401, 0.006600022315979004], "name" : "TEXCOORD_0"}, {"bufferView" : 0, "byteOffset" : 83544, "componentType" : 5123, "count" : 9312, "type" : "SCALAR", "max" : [8844], "min" : [0]}, {"bufferView" : 7, "byteOffset" : 0, "componentType" : 5126, "count" : 8845, "type" : "VEC3", "max" : [249.75, 278.4990234375, 24.00005531311035], "min" : [-249.75, -278.499755859375, -5.425069684861228E-05], "name" : "POSITION"}, {"bufferView" : 7, "byteOffset" : 12, "componentType" : 5126, "count" : 8845, "type" : "VEC3", "max" : [0.9984154105186462, 0.9984154105186462, 0.9969497919082642], "min" : [-0.9984154105186462, -0.9984154105186462, -0.9969465136528015], "name" : "NORMAL"}, {"bufferView" : 0, "byteOffset" : 102168, "componentType" : 5123, "count" : 36, "type" : "SCALAR", "max" : [35], "min" : [0]}, {"bufferView" : 8, "byteOffset" : 0, "componentType" : 5126, "count" : 36, "type" : "VEC3", "max" : [241.75, 9.500015258789062, -335.0009765625], "min" : [-241.75, -9.500014305114746, -875.999755859375], "name" : "POSITION"}, {"bufferView" : 8, "byteOffset" : 12, "componentType" : 5126, "count" : 36, "type" : "VEC3", "max" : [1.0000044107437134, 1.0000044107437134, 1.0000044107437134], "min" : [-1.0000044107437134, -1.0000044107437134, -1.0000044107437134], "name" : "NORMAL"}, {"bufferView" : 0, "byteOffset" : 102240, "componentType" : 5123, "count" : 36, "type" : "SCALAR", "max" : [35], "min" : [0]}, {"bufferView" : 9, "byteOffset" : 0, "componentType" : 5126, "count" : 36, "type" : "VEC3", "max" : [241.75, 9.500015258789062, -335.0009765625], "min" : [-241.75, -9.500014305114746, -875.999755859375], "name" : "POSITION"}, {"bufferView" : 9, "byteOffset" : 12, "componentType" : 5126, "count" : 36, "type" : "VEC3", "max" : [1.0000044107437134, 1.0000044107437134, 1.0000044107437134], "min" : [-1.0000044107437134, -1.0000044107437134, -1.0000044107437134], "name" : "NORMAL"}], "asset" : {"generator" : "Aspose.3D 23.4.0", "version" : "2.0"}, "buffers" : [{"uri" : "data:application/octet-stream;base64,", "byteLength" : 1589104}], "bufferViews" : [{"buffer" : 0, "byteOffset" : 0, "byteLength" : 102312, "target" : 34963}, {"buffer" : 0, "byteOffset" : 102316, "byteLength" : 1152, "byteStride" : 32, "target" : 34962}, {"buffer" : 0, "byteOffset" : 103472, "byteLength" : 1920, "byteStride" : 32, "target" : 34962}, {"buffer" : 0, "byteOffset" : 105396, "byteLength" : 768, "byteStride" : 32, "target" : 34962}, {"buffer" : 0, "byteOffset" : 106168, "byteLength" : 223488, "byteStride" : 24, "target" : 34962}, {"buffer" : 0, "byteOffset" : 329660, "byteLength" : 2016, "byteStride" : 24, "target" : 34962}, {"buffer" : 0, "byteOffset" : 331680, "byteLength" : 1032192, "byteStride" : 32, "target" : 34962}, {"buffer" : 0, "byteOffset" : 1363876, "byteLength" : 223488, "byteStride" : 24, "target" : 34962}, {"buffer" : 0, "byteOffset" : 1587368, "byteLength" : 864, "byteStride" : 24, "target" : 34962}, {"buffer" : 0, "byteOffset" : 1588236, "byteLength" : 864, "byteStride" : 24, "target" : 34962}], "images" : [{"uri" : "data:image/jpeg;base64,"}, {"uri" : "data:image/jpeg;base64,"}], "materials" : [{"name" : "M_03___Default", "pbrMetallicRoughness" : {"baseColorFactor" : [1, 1, 1, 1], "baseColorTexture" : {"index" : 0, "texCoord" : 0}, "metallicFactor" : 0, "roughnessFactor" : 0.46000000834465027}, "emissiveFactor" : [0, 0, 0], "alphaMode" : "OPAQUE", "doubleSided" : false}, {"name" : "M_03___Default.001", "pbrMetallicRoughness" : {"baseColorFactor" : [1, 1, 1, 1], "baseColorTexture" : {"index" : 1, "texCoord" : 0}, "metallicFactor" : 0, "roughnessFactor" : 0.46000000834465027}, "emissiveFactor" : [0, 0, 0], "alphaMode" : "OPAQUE", "doubleSided" : false}, {"name" : "Material.001", "pbrMetallicRoughness" : {"baseColorFactor" : [0.016807332634925842, 0.02842600829899311, 0.03954623267054558, 1], "metallicFactor" : 0, "roughnessFactor" : 0.5}, "emissiveFactor" : [0, 0, 0], "alphaMode" : "OPAQUE", "doubleSided" : true}, {"name" : "M_03___Default.003", "pbrMetallicRoughness" : {"baseColorFactor" : [0.016807332634925842, 0.02842600829899311, 0.03954623267054558, 1], "metallicFactor" : 0, "roughnessFactor" : 0.46000000834465027}, "emissiveFactor" : [0, 0, 0], "alphaMode" : "OPAQUE", "doubleSided" : false}, {"name" : "M_03___Default.005", "pbrMetallicRoughness" : {"baseColorFactor" : [0.016807332634925842, 0.02842600829899311, 0.03954623267054558, 1], "metallicFactor" : 0, "roughnessFactor" : 0.46000000834465027}, "emissiveFactor" : [0, 0, 0], "alphaMode" : "OPAQUE", "doubleSided" : false}, {"name" : "10407_Door_Knobs__Pulls_v1_Diffuse_SG.001", "extensions" : {"KHR_materials_specular" : {"specularColorFactor" : [0, 0, 0]}, "KHR_materials_ior" : {"ior" : 1.4500000476837158}}, "pbrMetallicRoughness" : {"baseColorFactor" : [0.05126943811774254, 0.033104751259088516, 0.024157632142305374, 1], "metallicFactor" : 0, "roughnessFactor" : 1}, "emissiveFactor" : [0, 0, 0], "alphaMode" : "OPAQUE", "doubleSided" : true}, {"name" : "M_03___Default.006", "pbrMetallicRoughness" : {"baseColorFactor" : [0.016807332634925842, 0.02842600829899311, 0.03954623267054558, 1], "metallicFactor" : 0, "roughnessFactor" : 0.46000000834465027}, "emissiveFactor" : [0, 0, 0], "alphaMode" : "OPAQUE", "doubleSided" : false}, {"name" : "M_03___Default.007", "pbrMetallicRoughness" : {"baseColorFactor" : [0.043734923005104065, 0.07421351969242096, 0.10461648553609848, 0.28110235929489136], "metallicFactor" : 0, "roughnessFactor" : 0.46000000834465027}, "emissiveFactor" : [0, 0, 0], "alphaMode" : "BLEND", "doubleSided" : false}, {"name" : "M_03___Default.004", "pbrMetallicRoughness" : {"baseColorFactor" : [0.016807332634925842, 0.02842600829899311, 0.03954623267054558, 1], "metallicFactor" : 0, "roughnessFactor" : 0.46000000834465027}, "emissiveFactor" : [0, 0, 0], "alphaMode" : "OPAQUE", "doubleSided" : false}], "meshes" : [{"primitives" : [{"attributes" : {"POSITION" : 1, "NORMAL" : 2, "TEXCOORD_0" : 3}, "indices" : 0, "material" : 0, "mode" : 4}]}, {"primitives" : [{"attributes" : {"POSITION" : 5, "NORMAL" : 6, "TEXCOORD_0" : 7}, "indices" : 4, "material" : 1, "mode" : 4}, {"attributes" : {"POSITION" : 9, "NORMAL" : 10, "TEXCOORD_0" : 11}, "indices" : 8, "material" : 2, "mode" : 4}]}, {"primitives" : [{"attributes" : {"POSITION" : 13, "NORMAL" : 14}, "indices" : 12, "material" : 3, "mode" : 4}]}, {"primitives" : [{"attributes" : {"POSITION" : 16, "NORMAL" : 17}, "indices" : 15, "material" : 4, "mode" : 4}]}, {"primitives" : [{"attributes" : {"POSITION" : 19, "NORMAL" : 20, "TEXCOORD_0" : 21}, "indices" : 18, "material" : 5, "mode" : 4}]}, {"primitives" : [{"attributes" : {"POSITION" : 23, "NORMAL" : 24}, "indices" : 22, "material" : 6, "mode" : 4}]}, {"primitives" : [{"attributes" : {"POSITION" : 26, "NORMAL" : 27}, "indices" : 25, "material" : 7, "mode" : 4}]}, {"primitives" : [{"attributes" : {"POSITION" : 29, "NORMAL" : 30}, "indices" : 28, "material" : 8, "mode" : 4}]}], "nodes" : [{"matrix" : [0.0010000000474974513, 0, 0, 0, 0, 0.0010000000474974513, 0, 0, 0, 0, 0.0010000000474974513, 0, 0, 0, 0, 1], "mesh" : 0, "name" : "Box8222882"}, {"children" : [0], "matrix" : [0.9572760462760925, 0, 0, 0, 0, -3.029462689596585E-07, -0.9999999657714298, 0, 0, 0.9999999657714298, -3.029462689596585E-07, 0, 0.239973247051239, 1.8802499771118164, 0.17997410893440247, 1], "name" : "Node #1.001"}, {"matrix" : [0.0010000000474974513, 0, 0, 0, 0, 0.0010000000474974513, 0, 0, 0, 0, 0.0010000000474974513, 0, 0, 0, 0, 1], "mesh" : 1, "name" : "Box8222873"}, {"children" : [2], "matrix" : [0, -1, 0, 0, 0, 0, -1, 0, 0.9572760462760925, 0, 0, 0, -0.2446478009223938, 1.7403477430343628, 0.299974262714386, 1], "name" : "Node #3.001"}, {"matrix" : [0.0010000000474974513, 0, 0, 0, 0, 0.0010000000474974513, 0, 0, 0, 0, 0.0010000000474974513, 0, 0, 0, 0, 1], "mesh" : 2, "name" : "Rectangle047"}, {"children" : [4], "matrix" : [0.9572760462760925, 0, 0, 0, 0, 1, 0, 0, 0, 0, 1, 0, 0.239973247051239, 2.460001230239868, 0.5814740061759949, 1], "name" : "Node #7.001"}, {"matrix" : [0.0010000000474974513, 0, 0, 0, 0, 0.0010000000474974513, 0, 0, 0, 0, 0.0010000000474974513, 0, 0, 0, 0, 1], "mesh" : 3, "name" : "Rectangle027"}, {"children" : [6], "matrix" : [0.9572760462760925, 0, 0, 0, 0, 1, 0, 0, 0, 0, 1, 0, 0.239973247051239, 2.5650012493133545, 0.35797423124313354, 1], "name" : "Node #11"}, {"matrix" : [0, -0.010000000707805157, 0, 0, 0, 0, 0.010000000707805157, 0, -0.010000000707805157, 0, 0, 0, 0.24003085494041443, 2.2445228099823, 0.5973260998725891, 1], "mesh" : 4, "name" : "10407_Door_Knobs_ Pulls_v1_max2009_SG_iteration-2.001"}, {"matrix" : [0.0010000000474974513, 0, 0, 0, 0, 0.001000000280328095, 0, 0, 0, 0, 0.0010000000474974513, 0, 0, 0, -0.0005102455615997314, 1], "mesh" : 5, "name" : "Rectangle047.001"}, {"children" : [9], "matrix" : [0.9572760462760925, 0, 0, 0, 0, 1.0362889766693115, 0, 0, 0, 0, 1, 0, 0.239973247051239, 1.8895928859710693, 0.34052783250808716, 1], "name" : "Node #7.002"}, {"matrix" : [0.0010000000474974513, 0, 0, 0, 0, 0.0010000000474974513, 0, 0, 0, 0, 0.0009940995369106531, 0, 0, 0.24334757030010223, -0.00590167474001646, 1], "mesh" : 6, "name" : "Box8222893.001"}, {"children" : [11], "matrix" : [0.9572760462760925, 0, 0, 0, 0, -3.029462689596585E-07, -0.9999999657714298, 0, 0, 1.0577914352746336, -3.2045397962261387E-07, 0, 0.239973247051239, 2.533907175064087, 0.590973973274231, 1], "name" : "Node #9.002"}, {"matrix" : [0.0009572760900482535, 0, 0, 0, 0, -3.0294621281365935E-10, -0.0009999997804382439, 0, 0, 0.0009999997804382439, -3.0294621281365935E-10, 0, 0.239973247051239, 3.0655012130737305, 0.590973973274231, 1], "mesh" : 7, "name" : "Box8222893"}], "samplers" : [{"magFilter" : 9729, "minFilter" : 9987, "wrapS" : 10497, "wrapT" : 10497}, {"magFilter" : 9729, "minFilter" : 9987, "wrapS" : 10497, "wrapT" : 10497}], "scene" : 0, "scenes" : [{"nodes" : [1, 3, 5, 7, 8, 10, 12, 13]}], "textures" : [{"sampler" : 0, "source" : 0, "name" : ""}, {"sampler" : 1, "source" : 1, "name" : ""}]}