{"extensionsUsed" : ["KHR_materials_specular", "KHR_materials_ior"], "accessors" : [{"bufferView" : 0, "byteOffset" : 0, "componentType" : 5123, "count" : 36, "type" : "SCALAR", "max" : [35], "min" : [0]}, {"bufferView" : 1, "byteOffset" : 0, "componentType" : 5126, "count" : 36, "type" : "VEC3", "max" : [1905, 290.74969482421875, 40], "min" : [-1905, -309.25006103515625, 0], "name" : "POSITION"}, {"bufferView" : 1, "byteOffset" : 12, "componentType" : 5126, "count" : 36, "type" : "VEC3", "max" : [1.0000044107437134, 1.0000044107437134, 1.0000044107437134], "min" : [-1.0000044107437134, -1.0000044107437134, -1.0000044107437134], "name" : "NORMAL"}, {"bufferView" : 0, "byteOffset" : 72, "componentType" : 5123, "count" : 32256, "type" : "SCALAR", "max" : [27426], "min" : [0]}, {"bufferView" : 2, "byteOffset" : 0, "componentType" : 5126, "count" : 27427, "type" : "VEC3", "max" : [1.3507000207901, 3.0199999809265137, 7.472499847412109], "min" : [-1.3507000207901, 0.00930000003427267, -7.472499847412109], "name" : "POSITION"}, {"bufferView" : 2, "byteOffset" : 12, "componentType" : 5126, "count" : 27427, "type" : "VEC3", "max" : [1.000003457069397, 1.0000044107437134, 1.0000044107437134], "min" : [-1.000003457069397, -1.0000044107437134, -1.0000044107437134], "name" : "NORMAL"}, {"bufferView" : 2, "byteOffset" : 24, "componentType" : 5126, "count" : 27427, "type" : "VEC2", "max" : [0.927299976348877, 0.9887999892234802], "min" : [0.006399999838322401, 0.006600022315979004], "name" : "TEXCOORD_0"}, {"bufferView" : 0, "byteOffset" : 64584, "componentType" : 5123, "count" : 36, "type" : "SCALAR", "max" : [35], "min" : [0]}, {"bufferView" : 3, "byteOffset" : 0, "componentType" : 5126, "count" : 36, "type" : "VEC3", "max" : [290.4998474121094, 9.500014305114746, -271.500244140625], "min" : [-290.5002746582031, -9.50003433227539, -422.49981689453125], "name" : "POSITION"}, {"bufferView" : 3, "byteOffset" : 12, "componentType" : 5126, "count" : 36, "type" : "VEC3", "max" : [1.0000044107437134, 1.0000044107437134, 1.0000044107437134], "min" : [-1.0000044107437134, -1.0000044107437134, -1.0000044107437134], "name" : "NORMAL"}, {"bufferView" : 0, "byteOffset" : 64656, "componentType" : 5123, "count" : 9312, "type" : "SCALAR", "max" : [8788], "min" : [0]}, {"bufferView" : 4, "byteOffset" : 0, "componentType" : 5126, "count" : 8789, "type" : "VEC3", "max" : [298.4998779296875, 341.9997863769531, 24.00004768371582], "min" : [-298.50030517578125, 174.99969482421875, -0.00010639732499839738], "name" : "POSITION"}, {"bufferView" : 4, "byteOffset" : 12, "componentType" : 5126, "count" : 8789, "type" : "VEC3", "max" : [0.9984286427497864, 0.998420774936676, 0.9969497919082642], "min" : [-0.9984154105186462, -0.998429536819458, -0.9969465136528015], "name" : "NORMAL"}, {"bufferView" : 0, "byteOffset" : 83280, "componentType" : 5123, "count" : 588, "type" : "SCALAR", "max" : [563], "min" : [0]}, {"bufferView" : 5, "byteOffset" : 0, "componentType" : 5126, "count" : 564, "type" : "VEC3", "max" : [2596, 15.684206008911133, 80.2001953125], "min" : [-2596, -4.7683701609457785E-07, 0], "name" : "POSITION"}, {"bufferView" : 5, "byteOffset" : 12, "componentType" : 5126, "count" : 564, "type" : "VEC3", "max" : [1.0000044107437134, 1.0000044107437134, 1.0000044107437134], "min" : [-1.0000044107437134, -1.0000039339065552, -1.0000044107437134], "name" : "NORMAL"}, {"bufferView" : 0, "byteOffset" : 84456, "componentType" : 5123, "count" : 84, "type" : "SCALAR", "max" : [83], "min" : [0]}, {"bufferView" : 6, "byteOffset" : 0, "componentType" : 5126, "count" : 84, "type" : "VEC3", "max" : [291.000244140625, -1385.89453125, 223.49974060058594], "min" : [-309, -1555.8955078125, -358.0003662109375], "name" : "POSITION"}, {"bufferView" : 6, "byteOffset" : 12, "componentType" : 5126, "count" : 84, "type" : "VEC3", "max" : [1.0000044107437134, 1.0000044107437134, 1.0000044107437134], "min" : [-1.0000044107437134, -1.0000044107437134, -1.0000044107437134], "name" : "NORMAL"}, {"bufferView" : 0, "byteOffset" : 84624, "componentType" : 5123, "count" : 36, "type" : "SCALAR", "max" : [29], "min" : [0]}, {"bufferView" : 7, "byteOffset" : 0, "componentType" : 5126, "count" : 30, "type" : "VEC3", "max" : [1, 1, 1], "min" : [-1, -1, -1], "name" : "POSITION"}, {"bufferView" : 7, "byteOffset" : 12, "componentType" : 5126, "count" : 30, "type" : "VEC3", "max" : [1.0000044107437134, 1.0000044107437134, 1.0000044107437134], "min" : [-1.0000044107437134, -1.0000044107437134, -1.0000044107437134], "name" : "NORMAL"}, {"bufferView" : 7, "byteOffset" : 24, "componentType" : 5126, "count" : 30, "type" : "VEC2", "max" : [0.9498714208602905, 1], "min" : [0.050128549337387085, 0], "name" : "TEXCOORD_0"}], "asset" : {"generator" : "Aspose.3D 23.4.0", "version" : "2.0"}, "buffers" : [{"uri" : "data:application/octet-stream;base64,", "byteLength" : 1359416}], "bufferViews" : [{"buffer" : 0, "byteOffset" : 0, "byteLength" : 84696, "target" : 34963}, {"buffer" : 0, "byteOffset" : 84700, "byteLength" : 864, "byteStride" : 24, "target" : 34962}, {"buffer" : 0, "byteOffset" : 85568, "byteLength" : 1032192, "byteStride" : 32, "target" : 34962}, {"buffer" : 0, "byteOffset" : 1117764, "byteLength" : 864, "byteStride" : 24, "target" : 34962}, {"buffer" : 0, "byteOffset" : 1118632, "byteLength" : 223488, "byteStride" : 24, "target" : 34962}, {"buffer" : 0, "byteOffset" : 1342124, "byteLength" : 14112, "byteStride" : 24, "target" : 34962}, {"buffer" : 0, "byteOffset" : 1356240, "byteLength" : 2016, "byteStride" : 24, "target" : 34962}, {"buffer" : 0, "byteOffset" : 1358260, "byteLength" : 1152, "byteStride" : 32, "target" : 34962}], "images" : [{"uri" : "data:image/jpeg;base64,"}], "materials" : [{"name" : "Wall_Paint.004", "pbrMetallicRoughness" : {"baseColorFactor" : [0.8069514632225037, 0.8148458003997803, 0.7912980914115906, 1], "metallicFactor" : 0, "roughnessFactor" : 0.6000000238418579}, "emissiveFactor" : [0, 0, 0], "alphaMode" : "OPAQUE", "doubleSided" : false}, {"name" : "10407_Door_Knobs__Pulls_v1_Diffuse_SG.002", "extensions" : {"KHR_materials_specular" : {"specularColorFactor" : [0, 0, 0]}, "KHR_materials_ior" : {"ior" : 1.4500000476837158}}, "pbrMetallicRoughness" : {"baseColorFactor" : [0.05126943811774254, 0.033104751259088516, 0.024157632142305374, 1], "metallicFactor" : 0, "roughnessFactor" : 1}, "emissiveFactor" : [0, 0, 0], "alphaMode" : "OPAQUE", "doubleSided" : true}, {"name" : "Wall_Paint.005", "pbrMetallicRoughness" : {"baseColorFactor" : [0.016807332634925842, 0.02842600829899311, 0.03954623267054558, 1], "metallicFactor" : 0, "roughnessFactor" : 0.6000000238418579}, "emissiveFactor" : [0, 0, 0], "alphaMode" : "OPAQUE", "doubleSided" : false}, {"name" : "Wall_Paint.006", "pbrMetallicRoughness" : {"baseColorFactor" : [0.016807332634925842, 0.02842600829899311, 0.03954623267054558, 1], "metallicFactor" : 0, "roughnessFactor" : 0.6000000238418579}, "emissiveFactor" : [0, 0, 0], "alphaMode" : "OPAQUE", "doubleSided" : false}, {"name" : "Wall_Paint.007", "pbrMetallicRoughness" : {"baseColorFactor" : [0.016807332634925842, 0.02842600829899311, 0.03954623267054558, 1], "metallicFactor" : 0, "roughnessFactor" : 0.6000000238418579}, "emissiveFactor" : [0, 0, 0], "alphaMode" : "OPAQUE", "doubleSided" : false}, {"name" : "Wall_Paint.008", "pbrMetallicRoughness" : {"baseColorFactor" : [0.016807332634925842, 0.02842600829899311, 0.03954623267054558, 1], "metallicFactor" : 0, "roughnessFactor" : 0.6000000238418579}, "emissiveFactor" : [0, 0, 0], "alphaMode" : "OPAQUE", "doubleSided" : false}, {"name" : "Material.002", "pbrMetallicRoughness" : {"baseColorFactor" : [1, 1, 1, 1], "baseColorTexture" : {"index" : 0, "texCoord" : 0}, "metallicFactor" : 0, "roughnessFactor" : 0.5}, "emissiveFactor" : [0, 0, 0], "alphaMode" : "OPAQUE", "doubleSided" : true}], "meshes" : [{"primitives" : [{"attributes" : {"POSITION" : 1, "NORMAL" : 2}, "indices" : 0, "material" : 0, "mode" : 4}]}, {"primitives" : [{"attributes" : {"POSITION" : 4, "NORMAL" : 5, "TEXCOORD_0" : 6}, "indices" : 3, "material" : 1, "mode" : 4}]}, {"primitives" : [{"attributes" : {"POSITION" : 8, "NORMAL" : 9}, "indices" : 7, "material" : 2, "mode" : 4}]}, {"primitives" : [{"attributes" : {"POSITION" : 11, "NORMAL" : 12}, "indices" : 10, "material" : 3, "mode" : 4}]}, {"primitives" : [{"attributes" : {"POSITION" : 14, "NORMAL" : 15}, "indices" : 13, "material" : 4, "mode" : 4}]}, {"primitives" : [{"attributes" : {"POSITION" : 17, "NORMAL" : 18}, "indices" : 16, "material" : 5, "mode" : 4}]}, {"primitives" : [{"attributes" : {"POSITION" : 20, "NORMAL" : 21, "TEXCOORD_0" : 22}, "indices" : 19, "material" : 6, "mode" : 4}]}], "nodes" : [{"matrix" : [0.0012567465892061591, 0, 0, 0, 0, 0.0010000000474974513, 0, 0, 0, 0, 0.0010000000474974513, 0, 0.4937577247619629, 0, 0, 1], "mesh" : 0, "name" : "Box8222915"}, {"children" : [0], "matrix" : [0.12512443959712982, 0, 0, 0, 0, -3.029462689596585E-07, -0.9999999657714298, 0, 0, 0.9999999657714298, -3.029462689596585E-07, 0, 0.23834000527858734, 0.9486321210861206, 0.28947898745536804, 1], "name" : "Node #9"}, {"matrix" : [0, -0.010000000707805157, 0, 0, 0, 0, 0.010000000707805157, 0, -0.010000000707805157, 0, 0, 0, 0.299578458070755, 0.2857942581176758, 0.5973260998725891, 1], "mesh" : 1, "name" : "10407_Door_Knobs_ Pulls_v1_max2009_SG_iteration-2.002"}, {"matrix" : [0.0010000000474974513, 0, 0, 0, 0, 0.0010000000474974513, 0, 0, 0, 0, 0.0010000000474974513, 0, 0, 0, 0.0014694926794618368, 1], "mesh" : 2, "name" : "Box8222906"}, {"children" : [3], "matrix" : [1, 0, 0, 0, 0, -3.029462689596585E-07, -0.9999999657714298, 0, 0, 0.9999999657714298, -3.029462689596585E-07, 0, 0.2999998927116394, 0.6092977523803711, 0.5910401940345764, 1], "name" : "Node #1.001"}, {"matrix" : [0.0010000000474974513, 0, 0, 0, 0, 0.0010000000474974513, 0, 0, 0, 0, 0.0010000000474974513, 0, 0, 0.0014694929122924805, 0, 1], "mesh" : 3, "name" : "Rectangle060"}, {"children" : [5], "matrix" : [1, 0, 0, 0, 0, 1, 0, 0, 0, 0, 1, 0, 0.2999998927116394, 0.003797873854637146, 0.581540048122406, 1], "name" : "Node #3"}, {"matrix" : [0.0010282967705279589, 0, 0, 0, 0, 0.0010000000474974513, 0, 0, 0, 0, 0.0010000000474974513, 0, 0, 0, 0, 1], "mesh" : 4, "name" : "SPR-5053"}, {"children" : [7], "matrix" : [0.11232055723667145, 0, 0, 0, 0, -7.858978753429776E-07, -0.9717937821497838, 0, 0, 0.9717937821497838, -7.858978753429776E-07, 0, 0.30000463128089905, 0.10128334164619446, 0.560040295124054, 1], "name" : "Node #5"}, {"matrix" : [0.0010000000474974513, 0, 0, 0, 0, 0.0010000000474974513, 0, 0, 0, 0, 0.0010000000474974513, 0, 0.3089998960494995, 1.7346625328063965, 0.358040452003479, 1], "mesh" : 5, "name" : "Rectangle038"}, {"matrix" : [0.2984509766101837, 0, 0, 0, 0, 0.3005000054836273, 0, 0, 0, 0, 0.2909519374370575, 0, 0.3006768524646759, 0.6485942602157593, 0.290004700422287, 1], "mesh" : 6, "name" : "Cube"}], "samplers" : [{"magFilter" : 9729, "minFilter" : 9987, "wrapS" : 10497, "wrapT" : 10497}], "scene" : 0, "scenes" : [{"nodes" : [1, 2, 4, 6, 8, 9, 10]}], "textures" : [{"sampler" : 0, "source" : 0, "name" : ""}]}