{"extensionsUsed" : ["KHR_materials_specular", "KHR_materials_ior"], "accessors" : [{"bufferView" : 0, "byteOffset" : 0, "componentType" : 5123, "count" : 84, "type" : "SCALAR", "max" : [83], "min" : [0]}, {"bufferView" : 1, "byteOffset" : 0, "componentType" : 5126, "count" : 84, "type" : "VEC3", "max" : [300.000244140625, 174.999267578125, 223.49974060058594], "min" : [-300.000244140625, -385.000244140625, -358.0003662109375], "name" : "POSITION"}, {"bufferView" : 1, "byteOffset" : 12, "componentType" : 5126, "count" : 84, "type" : "VEC3", "max" : [1.0000044107437134, 1.0000044107437134, 1.0000044107437134], "min" : [-1.0000044107437134, -1.0000044107437134, -1.0000044107437134], "name" : "NORMAL"}, {"bufferView" : 0, "byteOffset" : 168, "componentType" : 5123, "count" : 9312, "type" : "SCALAR", "max" : [8773], "min" : [0]}, {"bufferView" : 2, "byteOffset" : 0, "componentType" : 5126, "count" : 8774, "type" : "VEC3", "max" : [298.4998474121094, 278.4990234375, 24.00005531311035], "min" : [-298.5001220703125, -278.499755859375, -5.425069684861228E-05], "name" : "POSITION"}, {"bufferView" : 2, "byteOffset" : 12, "componentType" : 5126, "count" : 8774, "type" : "VEC3", "max" : [0.9984074831008911, 0.9984074831008911, 0.9969497919082642], "min" : [-0.9984074831008911, -0.9984074831008911, -0.9969465136528015], "name" : "NORMAL"}, {"bufferView" : 0, "byteOffset" : 18792, "componentType" : 5123, "count" : 32256, "type" : "SCALAR", "max" : [27202], "min" : [0]}, {"bufferView" : 3, "byteOffset" : 0, "componentType" : 5126, "count" : 27203, "type" : "VEC3", "max" : [1.3507000207901, 3.0199999809265137, 7.472499847412109], "min" : [-1.3507000207901, 0.00930000003427267, -7.472499847412109], "name" : "POSITION"}, {"bufferView" : 3, "byteOffset" : 12, "componentType" : 5126, "count" : 27203, "type" : "VEC3", "max" : [1.000003457069397, 1.0000044107437134, 1.0000044107437134], "min" : [-1.000003457069397, -1.0000044107437134, -1.0000044107437134], "name" : "NORMAL"}, {"bufferView" : 3, "byteOffset" : 24, "componentType" : 5126, "count" : 27203, "type" : "VEC2", "max" : [0.927299976348877, 0.9887999892234802], "min" : [0.006399999838322401, 0.006600022315979004], "name" : "TEXCOORD_0"}, {"bufferView" : 0, "byteOffset" : 83304, "componentType" : 5123, "count" : 36, "type" : "SCALAR", "max" : [35], "min" : [0]}, {"bufferView" : 4, "byteOffset" : 0, "componentType" : 5126, "count" : 36, "type" : "VEC3", "max" : [290.4998474121094, 9.500016212463379, -335.0009765625], "min" : [-290.5001220703125, -9.500014305114746, -875.999755859375], "name" : "POSITION"}, {"bufferView" : 4, "byteOffset" : 12, "componentType" : 5126, "count" : 36, "type" : "VEC3", "max" : [1.0000044107437134, 1.0000044107437134, 1.0000044107437134], "min" : [-1.0000044107437134, -1.0000044107437134, -1.0000044107437134], "name" : "NORMAL"}, {"bufferView" : 0, "byteOffset" : 83376, "componentType" : 5123, "count" : 60, "type" : "SCALAR", "max" : [49], "min" : [0]}, {"bufferView" : 5, "byteOffset" : 0, "componentType" : 5126, "count" : 50, "type" : "VEC3", "max" : [1, 1, 1], "min" : [-1, -1, -1], "name" : "POSITION"}, {"bufferView" : 5, "byteOffset" : 12, "componentType" : 5126, "count" : 50, "type" : "VEC3", "max" : [1.0000044107437134, 1.0000044107437134, 1.0000044107437134], "min" : [-1.0000044107437134, -1.0000044107437134, -1.0000044107437134], "name" : "NORMAL"}, {"bufferView" : 5, "byteOffset" : 24, "componentType" : 5126, "count" : 50, "type" : "VEC2", "max" : [0.875, 1], "min" : [0.125, 0], "name" : "TEXCOORD_0"}], "asset" : {"generator" : "Aspose.3D 23.4.0", "version" : "2.0"}, "buffers" : [{"uri" : "data:application/octet-stream;base64,", "byteLength" : 1344000}], "bufferViews" : [{"buffer" : 0, "byteOffset" : 0, "byteLength" : 83496, "target" : 34963}, {"buffer" : 0, "byteOffset" : 83500, "byteLength" : 2016, "byteStride" : 24, "target" : 34962}, {"buffer" : 0, "byteOffset" : 85520, "byteLength" : 223488, "byteStride" : 24, "target" : 34962}, {"buffer" : 0, "byteOffset" : 309012, "byteLength" : 1032192, "byteStride" : 32, "target" : 34962}, {"buffer" : 0, "byteOffset" : 1341208, "byteLength" : 864, "byteStride" : 24, "target" : 34962}, {"buffer" : 0, "byteOffset" : 1342076, "byteLength" : 1920, "byteStride" : 32, "target" : 34962}], "materials" : [{"name" : "M_03___Default.009", "pbrMetallicRoughness" : {"baseColorFactor" : [0.016807332634925842, 0.02842600829899311, 0.03954623267054558, 1], "metallicFactor" : 0, "roughnessFactor" : 0.46000000834465027}, "emissiveFactor" : [0, 0, 0], "alphaMode" : "OPAQUE", "doubleSided" : false}, {"name" : "M_03___Default.010", "pbrMetallicRoughness" : {"baseColorFactor" : [0.016807332634925842, 0.02842600829899311, 0.03954623267054558, 1], "metallicFactor" : 0, "roughnessFactor" : 0.46000000834465027}, "emissiveFactor" : [0, 0, 0], "alphaMode" : "OPAQUE", "doubleSided" : false}, {"name" : "10407_Door_Knobs__Pulls_v1_Diffuse_SG.002", "extensions" : {"KHR_materials_specular" : {"specularColorFactor" : [0, 0, 0]}, "KHR_materials_ior" : {"ior" : 1.4500000476837158}}, "pbrMetallicRoughness" : {"baseColorFactor" : [0.05126943811774254, 0.033104751259088516, 0.024157632142305374, 1], "metallicFactor" : 0, "roughnessFactor" : 1}, "emissiveFactor" : [0, 0, 0], "alphaMode" : "OPAQUE", "doubleSided" : true}, {"name" : "M_03___Default.008", "pbrMetallicRoughness" : {"baseColorFactor" : [0.016807332634925842, 0.02842600829899311, 0.03954623267054558, 1], "metallicFactor" : 0, "roughnessFactor" : 0.46000000834465027}, "emissiveFactor" : [0, 0, 0], "alphaMode" : "OPAQUE", "doubleSided" : false}, {"name" : "M_03___Default.007", "pbrMetallicRoughness" : {"baseColorFactor" : [0.024157600477337837, 0.02518683858215809, 0.02518686093389988, 1], "metallicFactor" : 0, "roughnessFactor" : 0.46000000834465027}, "emissiveFactor" : [0, 0, 0], "alphaMode" : "OPAQUE", "doubleSided" : false}], "meshes" : [{"primitives" : [{"attributes" : {"POSITION" : 1, "NORMAL" : 2}, "indices" : 0, "material" : 0, "mode" : 4}]}, {"primitives" : [{"attributes" : {"POSITION" : 4, "NORMAL" : 5}, "indices" : 3, "material" : 1, "mode" : 4}]}, {"primitives" : [{"attributes" : {"POSITION" : 7, "NORMAL" : 8, "TEXCOORD_0" : 9}, "indices" : 6, "material" : 2, "mode" : 4}]}, {"primitives" : [{"attributes" : {"POSITION" : 11, "NORMAL" : 12}, "indices" : 10, "material" : 3, "mode" : 4}]}, {"primitives" : [{"attributes" : {"POSITION" : 14, "NORMAL" : 15, "TEXCOORD_0" : 16}, "indices" : 13, "material" : 4, "mode" : 4}]}], "nodes" : [{"matrix" : [0.0010000000474974513, 0, 0, 0, 0, 0.0010000000474974513, 0, 0, 0, 0, 0.0010000000474974513, 0, 0, 0, 0.001271963119506836, 1], "mesh" : 0, "name" : "Rectangle032"}, {"children" : [0], "matrix" : [1, 0, 0, 0, 0, 1, 0, 0, 0, 0, 1, 0, 0.30000004172325134, 2.560000419616699, 0.35701677203178406, 1], "name" : "Node #3.002"}, {"matrix" : [0.0010000000474974513, 0, 0, 0, 0, 0.0010000000474974513, 0, 0, 0, 0, 0.0010000000474974513, 0, 0, 0, 0, 1], "mesh" : 1, "name" : "Rectangle052"}, {"children" : [2], "matrix" : [1, 0, 0, 0, 0, 1, 0, 0, 0, 0, 1, 0, 0.30000004172325134, 2.455000400543213, 0.5805163979530334, 1], "name" : "Node #5.002"}, {"matrix" : [0, -0.010000000707805157, 0, 0, 0, 0, 0.010000000707805157, 0, -0.010000000707805157, 0, 0, 0, 0.299578458070755, 2.2450149059295654, 0.5973260998725891, 1], "mesh" : 2, "name" : "10407_Door_Knobs_ Pulls_v1_max2009_SG_iteration-2.002"}, {"matrix" : [0.0010000000474974513, 0, 0, 0, 0, -3.0294621281365935E-10, -0.0009999997804382439, 0, 0, 0.0009999997804382439, -3.0294621281365935E-10, 0, 0.30000004172325134, 3.060500383377075, 0.5900166034698486, 1], "mesh" : 3, "name" : "Box8222898"}, {"matrix" : [0.29803308844566345, 0, 0, 0, 0, 0.2231731414794922, 0, 0, 0, 0, 0.18498662114143372, 0, 0.30159303545951843, 1.9527041912078857, 0.1862134337425232, 1], "mesh" : 4, "name" : "Cube"}], "scene" : 0, "scenes" : [{"nodes" : [1, 3, 4, 5, 6]}]}