{
  "asset": {
    "version": "2.0",
    "generator": "gltfeditor.com"
  },
  "buffers": [
    {
      "uri": "data:application/octet-stream;base64,",
      "byteLength": 74688
    },
    {
      "uri": "data:application/octet-stream;base64,",
      "byteLength": 720
    },
    {
      "uri": "data:application/octet-stream;base64,",
      "byteLength": 2112
    },
    {
      "uri": "data:application/octet-stream;base64,",
      "byteLength": 74688
    },
    {
      "uri": "data:application/octet-stream;base64,",
      "byteLength": 720
    },
    {
      "uri": "data:application/octet-stream;base64,",
      "byteLength": 7632
    },
    {
      "uri": "data:application/octet-stream;base64,",
      "byteLength": 720
    }
  ],
  "bufferViews": [
    {
      "buffer": 0,
      "byteOffset": 0,
      "byteLength": 37440,
      "byteStride": 24,
      "target": 34962
    },
    {
      "buffer": 0,
      "byteOffset": 37440,
      "byteLength": 37248,
      "target": 34963
    },
    {
      "buffer": 1,
      "byteOffset": 0,
      "byteLength": 576,
      "byteStride": 24,
      "target": 34962
    },
    {
      "buffer": 1,
      "byteOffset": 576,
      "byteLength": 144,
      "target": 34963
    },
    {
      "buffer": 2,
      "byteOffset": 0,
      "byteLength": 1776,
      "byteStride": 24,
      "target": 34962
    },
    {
      "buffer": 2,
      "byteOffset": 1776,
      "byteLength": 336,
      "target": 34963
    },
    {
      "buffer": 3,
      "byteOffset": 0,
      "byteLength": 37440,
      "byteStride": 24,
      "target": 34962
    },
    {
      "buffer": 3,
      "byteOffset": 37440,
      "byteLength": 37248,
      "target": 34963
    },
    {
      "buffer": 4,
      "byteOffset": 0,
      "byteLength": 576,
      "byteStride": 24,
      "target": 34962
    },
    {
      "buffer": 4,
      "byteOffset": 576,
      "byteLength": 144,
      "target": 34963
    },
    {
      "buffer": 5,
      "byteOffset": 0,
      "byteLength": 5280,
      "byteStride": 24,
      "target": 34962
    },
    {
      "buffer": 5,
      "byteOffset": 5280,
      "byteLength": 2352,
      "target": 34963
    },
    {
      "buffer": 6,
      "byteOffset": 0,
      "byteLength": 576,
      "byteStride": 24,
      "target": 34962
    },
    {
      "buffer": 6,
      "byteOffset": 576,
      "byteLength": 144,
      "target": 34963
    }
  ],
  "accessors": [
    {
      "bufferView": 0,
      "byteOffset": 0,
      "componentType": 5126,
      "normalized": false,
      "count": 1560,
      "min": [
        -0.9983841180801392,
        -0.9983991980552673,
        -0.9969407320022583
      ],
      "max": [
        0.9983843564987183,
        0.9983841180801392,
        0.9969425201416016
      ],
      "type": "VEC3"
    },
    {
      "bufferView": 0,
      "byteOffset": 12,
      "componentType": 5126,
      "normalized": false,
      "count": 1560,
      "min": [
        -233.50027465820312,
        174.99972534179688,
        -0.00010849720274563879
      ],
      "max": [
        233.49948120117188,
        941.9996337890625,
        23.999975204467773
      ],
      "type": "VEC3"
    },
    {
      "bufferView": 1,
      "byteOffset": 0,
      "componentType": 5125,
      "normalized": false,
      "count": 9312,
      "min": [
        0
      ],
      "max": [
        1559
      ],
      "type": "SCALAR"
    },
    {
      "bufferView": 2,
      "byteOffset": 0,
      "componentType": 5126,
      "normalized": false,
      "count": 24,
      "min": [
        -1,
        -1,
        -1
      ],
      "max": [
        1,
        1,
        1
      ],
      "type": "VEC3"
    },
    {
      "bufferView": 2,
      "byteOffset": 12,
      "componentType": 5126,
      "normalized": false,
      "count": 24,
      "min": [
        -225.50027465820312,
        -9.500033378601074,
        -422.49981689453125
      ],
      "max": [
        225.49948120117188,
        9.499988555908203,
        328.4996032714844
      ],
      "type": "VEC3"
    },
    {
      "bufferView": 3,
      "byteOffset": 0,
      "componentType": 5125,
      "normalized": false,
      "count": 36,
      "min": [
        0
      ],
      "max": [
        23
      ],
      "type": "SCALAR"
    },
    {
      "bufferView": 4,
      "byteOffset": 0,
      "componentType": 5126,
      "normalized": false,
      "count": 74,
      "min": [
        -1,
        -1,
        -1
      ],
      "max": [
        1,
        1,
        1
      ],
      "type": "VEC3"
    },
    {
      "bufferView": 4,
      "byteOffset": 12,
      "componentType": 5126,
      "normalized": false,
      "count": 74,
      "min": [
        -235.0001220703125,
        -385.00018310546875,
        -358.0003967285156
      ],
      "max": [
        705.000244140625,
        385.000244140625,
        223.49974060058594
      ],
      "type": "VEC3"
    },
    {
      "bufferView": 5,
      "byteOffset": 0,
      "componentType": 5125,
      "normalized": false,
      "count": 84,
      "min": [
        0
      ],
      "max": [
        73
      ],
      "type": "SCALAR"
    },
    {
      "bufferView": 6,
      "byteOffset": 0,
      "componentType": 5126,
      "normalized": false,
      "count": 1560,
      "min": [
        -0.9983841180801392,
        -0.9983991980552673,
        -0.9969407320022583
      ],
      "max": [
        0.9983843564987183,
        0.9983841180801392,
        0.9969425201416016
      ],
      "type": "VEC3"
    },
    {
      "bufferView": 6,
      "byteOffset": 12,
      "componentType": 5126,
      "normalized": false,
      "count": 1560,
      "min": [
        -233.50027465820312,
        174.99972534179688,
        -0.00010849720274563879
      ],
      "max": [
        233.49948120117188,
        941.9996337890625,
        23.999975204467773
      ],
      "type": "VEC3"
    },
    {
      "bufferView": 7,
      "byteOffset": 0,
      "componentType": 5125,
      "normalized": false,
      "count": 9312,
      "min": [
        0
      ],
      "max": [
        1559
      ],
      "type": "SCALAR"
    },
    {
      "bufferView": 8,
      "byteOffset": 0,
      "componentType": 5126,
      "normalized": false,
      "count": 24,
      "min": [
        -1,
        -1,
        -1
      ],
      "max": [
        1,
        1,
        1
      ],
      "type": "VEC3"
    },
    {
      "bufferView": 8,
      "byteOffset": 12,
      "componentType": 5126,
      "normalized": false,
      "count": 24,
      "min": [
        -225.50027465820312,
        -9.500033378601074,
        -422.49981689453125
      ],
      "max": [
        225.49948120117188,
        9.499988555908203,
        328.4996032714844
      ],
      "type": "VEC3"
    },
    {
      "bufferView": 9,
      "byteOffset": 0,
      "componentType": 5125,
      "normalized": false,
      "count": 36,
      "min": [
        0
      ],
      "max": [
        23
      ],
      "type": "SCALAR"
    },
    {
      "bufferView": 10,
      "byteOffset": 0,
      "componentType": 5126,
      "normalized": false,
      "count": 220,
      "min": [
        -1,
        -0.9999995827674866,
        -1
      ],
      "max": [
        1,
        1,
        1
      ],
      "type": "VEC3"
    },
    {
      "bufferView": 10,
      "byteOffset": 12,
      "componentType": 5126,
      "normalized": false,
      "count": 220,
      "min": [
        -2596,
        -4.7683701609457785e-7,
        0
      ],
      "max": [
        2596,
        15.684206008911133,
        80.2001953125
      ],
      "type": "VEC3"
    },
    {
      "bufferView": 11,
      "byteOffset": 0,
      "componentType": 5125,
      "normalized": false,
      "count": 588,
      "min": [
        0
      ],
      "max": [
        219
      ],
      "type": "SCALAR"
    },
    {
      "bufferView": 12,
      "byteOffset": 0,
      "componentType": 5126,
      "normalized": false,
      "count": 24,
      "min": [
        -1,
        -1,
        -1
      ],
      "max": [
        1,
        1,
        1
      ],
      "type": "VEC3"
    },
    {
      "bufferView": 12,
      "byteOffset": 12,
      "componentType": 5126,
      "normalized": false,
      "count": 24,
      "min": [
        -1905,
        -309.25006103515625,
        0
      ],
      "max": [
        1905,
        290.74969482421875,
        40
      ],
      "type": "VEC3"
    },
    {
      "bufferView": 13,
      "byteOffset": 0,
      "componentType": 5125,
      "normalized": false,
      "count": 36,
      "min": [
        0
      ],
      "max": [
        23
      ],
      "type": "SCALAR"
    }
  ],
  "scene": 0,
  "scenes": [
    {
      "nodes": [
        1,
        3,
        5,
        7,
        9,
        11,
        13
      ],
      "name": "c_bottom"
    }
  ],
  "nodes": [
    {
      "name": "Rectangle067",
      "matrix": [
        0.0010000000474974513,
        0,
        0,
        0,
        0,
        0.0010000000474974513,
        0,
        0,
        0,
        0,
        0.0010000000474974513,
        0,
        0,
        0,
        0,
        1
      ],
      "mesh": 0
    },
    {
      "children": [
        0
      ],
      "matrix": [
        1,
        0,
        0,
        0,
        0,
        1,
        1.6292068494294654e-7,
        0,
        0,
        -1.6292068494294654e-7,
        1,
        0,
        -2.8255984783172607,
        -0.000027587890144786797,
        -0.7685003876686096,
        1
      ]
    },
    {
      "name": "Box8222913",
      "matrix": [
        0.0010000000474974513,
        0,
        0,
        0,
        0,
        0.0010000000474974513,
        0,
        0,
        0,
        0,
        0.0010000000474974513,
        0,
        0,
        0,
        0,
        1
      ],
      "mesh": 1
    },
    {
      "children": [
        2
      ],
      "matrix": [
        1,
        0,
        0,
        0,
        0,
        3.422854177870249e-8,
        -0.9999999403953552,
        0,
        0,
        0.9999999403953552,
        3.422854177870249e-8,
        0,
        -2.8255984783172607,
        0.6054723858833313,
        -0.7590002417564392,
        1
      ]
    },
    {
      "name": "Rectangle040",
      "matrix": [
        0.0010000000474974513,
        0,
        0,
        0,
        0,
        0.0010000000474974513,
        0,
        0,
        0,
        0,
        0.0010000000474974513,
        0,
        0,
        0,
        0,
        1
      ],
      "mesh": 2
    },
    {
      "children": [
        4
      ],
      "matrix": [
        1,
        0,
        0,
        0,
        0,
        1,
        1.6292068494294654e-7,
        0,
        0,
        -1.6292068494294654e-7,
        1,
        0,
        -2.8255984783172607,
        0.5584723949432373,
        -0.9919999837875366,
        1
      ]
    },
    {
      "name": "Rectangle066",
      "matrix": [
        0.0010000000474974513,
        0,
        0,
        0,
        0,
        0.0010000000474974513,
        0,
        0,
        0,
        0,
        0.0010000000474974513,
        0,
        0,
        0,
        0,
        1
      ],
      "mesh": 3
    },
    {
      "children": [
        6
      ],
      "matrix": [
        1,
        0,
        0,
        0,
        0,
        1,
        1.6292068494294654e-7,
        0,
        0,
        -1.6292068494294654e-7,
        1,
        0,
        -2.3555984497070312,
        -0.000027587890144786797,
        -0.7685003876686096,
        1
      ]
    },
    {
      "name": "Box8222912",
      "matrix": [
        0.0010000000474974513,
        0,
        0,
        0,
        0,
        0.0010000000474974513,
        0,
        0,
        0,
        0,
        0.0010000000474974513,
        0,
        0,
        0,
        0,
        1
      ],
      "mesh": 4
    },
    {
      "children": [
        8
      ],
      "matrix": [
        1,
        0,
        0,
        0,
        0,
        3.422854177870249e-8,
        -0.9999999403953552,
        0,
        0,
        0.9999999403953552,
        3.422854177870249e-8,
        0,
        -2.3555984497070312,
        0.6054723858833313,
        -0.7590002417564392,
        1
      ]
    },
    {
      "name": "SPR-5052",
      "matrix": [
        0.0010000000474974513,
        0,
        0,
        0,
        0,
        0.0010000000474974513,
        0,
        0,
        0,
        0,
        0.0010000000474974513,
        0,
        0,
        0,
        0,
        1
      ],
      "mesh": 5
    },
    {
      "children": [
        10
      ],
      "matrix": [
        0.18160396814346313,
        0,
        0,
        0,
        0,
        3.422854177870249e-8,
        -0.9999999403953552,
        0,
        0,
        0.9999999403953552,
        3.422854177870249e-8,
        0,
        -2.5926222801208496,
        0.10413622856140137,
        -0.7900002598762512,
        1
      ]
    },
    {
      "name": "Box8222915",
      "matrix": [
        0.0010000000474974513,
        0,
        0,
        0,
        0,
        0.0010000000474974513,
        0,
        0,
        0,
        0,
        0.0010000000474974513,
        0,
        0,
        0,
        0,
        1
      ],
      "mesh": 6
    },
    {
      "children": [
        12
      ],
      "matrix": [
        0.24668452143669128,
        0,
        0,
        0,
        0,
        3.422854177870249e-8,
        -0.9999999403953552,
        0,
        0,
        0.9999999403953552,
        3.422854177870249e-8,
        0,
        -2.5882067680358887,
        0.9436741471290588,
        -1.0592504739761353,
        1
      ]
    }
  ],
  "meshes": [
    {
      "primitives": [
        {
          "material": 0,
          "mode": 4,
          "attributes": {
            "NORMAL": 0,
            "POSITION": 1
          },
          "indices": 2
        }
      ]
    },
    {
      "primitives": [
        {
          "material": 0,
          "mode": 4,
          "attributes": {
            "NORMAL": 3,
            "POSITION": 4
          },
          "indices": 5
        }
      ]
    },
    {
      "primitives": [
        {
          "material": 0,
          "mode": 4,
          "attributes": {
            "NORMAL": 6,
            "POSITION": 7
          },
          "indices": 8
        }
      ]
    },
    {
      "primitives": [
        {
          "material": 0,
          "mode": 4,
          "attributes": {
            "NORMAL": 9,
            "POSITION": 10
          },
          "indices": 11
        }
      ]
    },
    {
      "primitives": [
        {
          "material": 0,
          "mode": 4,
          "attributes": {
            "NORMAL": 12,
            "POSITION": 13
          },
          "indices": 14
        }
      ]
    },
    {
      "primitives": [
        {
          "material": 0,
          "mode": 4,
          "attributes": {
            "NORMAL": 15,
            "POSITION": 16
          },
          "indices": 17
        }
      ]
    },
    {
      "primitives": [
        {
          "material": 0,
          "mode": 4,
          "attributes": {
            "NORMAL": 18,
            "POSITION": 19
          },
          "indices": 20
        }
      ]
    }
  ],
  "materials": [
    {
      "pbrMetallicRoughness": {
        "baseColorFactor": [
          0.1411764705882353,
          0.28627450980392155,
          0.5019607843137255,
          1
        ],
        "metallicFactor": 0,
        "roughnessFactor": 0.6000000238418579
      },
      "emissiveFactor": [
        0,
        0,
        0
      ],
      "alphaMode": "OPAQUE",
      "doubleSided": false
    }
  ]
}
