{
  "asset": {
    "version": "2.0",
    "generator": "gltfeditor.com"
  },
  "buffers": [
    {
      "uri": "data:application/octet-stream;base64,",
      "byteLength": 720
    },
    {
      "uri": "data:application/octet-stream;base64,",
      "byteLength": 46608
    },
    {
      "uri": "data:application/octet-stream;base64,",
      "byteLength": 2352
    },
    {
      "uri": "data:application/octet-stream;base64,",
      "byteLength": 74688
    },
    {
      "uri": "data:application/octet-stream;base64,",
      "byteLength": 2232
    },
    {
      "uri": "data:application/octet-stream;base64,",
      "byteLength": 720
    },
    {
      "uri": "data:application/octet-stream;base64,",
      "byteLength": 74688
    },
    {
      "uri": "data:application/octet-stream;base64,",
      "byteLength": 720
    },
    {
      "uri": "data:application/octet-stream;base64,",
      "byteLength": 2232
    }
  ],
  "bufferViews": [
    {
      "buffer": 0,
      "byteOffset": 0,
      "byteLength": 576,
      "byteStride": 24,
      "target": 34962
    },
    {
      "buffer": 0,
      "byteOffset": 576,
      "byteLength": 144,
      "target": 34963
    },
    {
      "buffer": 1,
      "byteOffset": 0,
      "byteLength": 23616,
      "byteStride": 24,
      "target": 34962
    },
    {
      "buffer": 1,
      "byteOffset": 23616,
      "byteLength": 22992,
      "target": 34963
    },
    {
      "buffer": 2,
      "byteOffset": 0,
      "byteLength": 2016,
      "byteStride": 24,
      "target": 34962
    },
    {
      "buffer": 2,
      "byteOffset": 2016,
      "byteLength": 336,
      "target": 34963
    },
    {
      "buffer": 3,
      "byteOffset": 0,
      "byteLength": 37440,
      "byteStride": 24,
      "target": 34962
    },
    {
      "buffer": 3,
      "byteOffset": 37440,
      "byteLength": 37248,
      "target": 34963
    },
    {
      "buffer": 4,
      "byteOffset": 0,
      "byteLength": 1896,
      "byteStride": 24,
      "target": 34962
    },
    {
      "buffer": 4,
      "byteOffset": 1896,
      "byteLength": 336,
      "target": 34963
    },
    {
      "buffer": 5,
      "byteOffset": 0,
      "byteLength": 576,
      "byteStride": 24,
      "target": 34962
    },
    {
      "buffer": 5,
      "byteOffset": 576,
      "byteLength": 144,
      "target": 34963
    },
    {
      "buffer": 6,
      "byteOffset": 0,
      "byteLength": 37440,
      "byteStride": 24,
      "target": 34962
    },
    {
      "buffer": 6,
      "byteOffset": 37440,
      "byteLength": 37248,
      "target": 34963
    },
    {
      "buffer": 7,
      "byteOffset": 0,
      "byteLength": 576,
      "byteStride": 24,
      "target": 34962
    },
    {
      "buffer": 7,
      "byteOffset": 576,
      "byteLength": 144,
      "target": 34963
    },
    {
      "buffer": 8,
      "byteOffset": 0,
      "byteLength": 1896,
      "byteStride": 24,
      "target": 34962
    },
    {
      "buffer": 8,
      "byteOffset": 1896,
      "byteLength": 336,
      "target": 34963
    }
  ],
  "accessors": [
    {
      "bufferView": 0,
      "byteOffset": 0,
      "componentType": 5126,
      "normalized": false,
      "count": 24,
      "min": [
        -1,
        -1,
        -1
      ],
      "max": [
        1,
        1,
        1
      ],
      "type": "VEC3"
    },
    {
      "bufferView": 0,
      "byteOffset": 12,
      "componentType": 5126,
      "normalized": false,
      "count": 24,
      "min": [
        -282.00018310546875,
        -140.00027465820312,
        0
      ],
      "max": [
        282.000244140625,
        159.99966430664062,
        18
      ],
      "type": "VEC3"
    },
    {
      "bufferView": 1,
      "byteOffset": 0,
      "componentType": 5125,
      "normalized": false,
      "count": 36,
      "min": [
        0
      ],
      "max": [
        23
      ],
      "type": "SCALAR"
    },
    {
      "bufferView": 2,
      "byteOffset": 0,
      "componentType": 5126,
      "normalized": false,
      "count": 984,
      "min": [
        -1,
        -1,
        -1
      ],
      "max": [
        1,
        1,
        1
      ],
      "type": "VEC3"
    },
    {
      "bufferView": 2,
      "byteOffset": 12,
      "componentType": 5126,
      "normalized": false,
      "count": 984,
      "min": [
        -437.46075439453125,
        -1025.691162109375,
        -240.00039672851562
      ],
      "max": [
        141.03958129882812,
        -428.6910400390625,
        -218.00030517578125
      ],
      "type": "VEC3"
    },
    {
      "bufferView": 3,
      "byteOffset": 0,
      "componentType": 5125,
      "normalized": false,
      "count": 5748,
      "min": [
        0
      ],
      "max": [
        983
      ],
      "type": "SCALAR"
    },
    {
      "bufferView": 4,
      "byteOffset": 0,
      "componentType": 5126,
      "normalized": false,
      "count": 84,
      "min": [
        -1,
        -1,
        -1
      ],
      "max": [
        1,
        1,
        1
      ],
      "type": "VEC3"
    },
    {
      "bufferView": 4,
      "byteOffset": 12,
      "componentType": 5126,
      "normalized": false,
      "count": 84,
      "min": [
        -439.6525573730469,
        -39.99986267089844,
        206.2498016357422
      ],
      "max": [
        140.3480682373047,
        300.00030517578125,
        806.2501831054688
      ],
      "type": "VEC3"
    },
    {
      "bufferView": 5,
      "byteOffset": 0,
      "componentType": 5125,
      "normalized": false,
      "count": 84,
      "min": [
        0
      ],
      "max": [
        83
      ],
      "type": "SCALAR"
    },
    {
      "bufferView": 6,
      "byteOffset": 0,
      "componentType": 5126,
      "normalized": false,
      "count": 1560,
      "min": [
        -0.998386561870575,
        -0.9983855485916138,
        -0.9969386458396912
      ],
      "max": [
        0.998384416103363,
        0.9983842372894287,
        0.9969401359558105
      ],
      "type": "VEC3"
    },
    {
      "bufferView": 6,
      "byteOffset": 12,
      "componentType": 5126,
      "normalized": false,
      "count": 1560,
      "min": [
        -298.5001220703125,
        -278.499755859375,
        -0.00005425069684861228
      ],
      "max": [
        298.4998474121094,
        278.4990234375,
        24.00005531311035
      ],
      "type": "VEC3"
    },
    {
      "bufferView": 7,
      "byteOffset": 0,
      "componentType": 5125,
      "normalized": false,
      "count": 9312,
      "min": [
        0
      ],
      "max": [
        1559
      ],
      "type": "SCALAR"
    },
    {
      "bufferView": 8,
      "byteOffset": 0,
      "componentType": 5126,
      "normalized": false,
      "count": 79,
      "min": [
        -1,
        -1,
        -1
      ],
      "max": [
        1,
        1,
        1
      ],
      "type": "VEC3"
    },
    {
      "bufferView": 8,
      "byteOffset": 12,
      "componentType": 5126,
      "normalized": false,
      "count": 79,
      "min": [
        -300.000244140625,
        -385.000244140625,
        -358.0003662109375
      ],
      "max": [
        300.000244140625,
        174.999267578125,
        223.49974060058594
      ],
      "type": "VEC3"
    },
    {
      "bufferView": 9,
      "byteOffset": 0,
      "componentType": 5125,
      "normalized": false,
      "count": 84,
      "min": [
        0
      ],
      "max": [
        78
      ],
      "type": "SCALAR"
    },
    {
      "bufferView": 10,
      "byteOffset": 0,
      "componentType": 5126,
      "normalized": false,
      "count": 24,
      "min": [
        -1,
        -1,
        -1
      ],
      "max": [
        1,
        1,
        1
      ],
      "type": "VEC3"
    },
    {
      "bufferView": 10,
      "byteOffset": 12,
      "componentType": 5126,
      "normalized": false,
      "count": 24,
      "min": [
        -290.5001220703125,
        -9.500014305114746,
        -875.999755859375
      ],
      "max": [
        290.4998474121094,
        9.500016212463379,
        -335.0009765625
      ],
      "type": "VEC3"
    },
    {
      "bufferView": 11,
      "byteOffset": 0,
      "componentType": 5125,
      "normalized": false,
      "count": 36,
      "min": [
        0
      ],
      "max": [
        23
      ],
      "type": "SCALAR"
    },
    {
      "bufferView": 12,
      "byteOffset": 0,
      "componentType": 5126,
      "normalized": false,
      "count": 1560,
      "min": [
        -0.998386561870575,
        -0.9983855485916138,
        -0.9969386458396912
      ],
      "max": [
        0.998384416103363,
        0.9983842372894287,
        0.9969401359558105
      ],
      "type": "VEC3"
    },
    {
      "bufferView": 12,
      "byteOffset": 12,
      "componentType": 5126,
      "normalized": false,
      "count": 1560,
      "min": [
        -298.5001220703125,
        -278.499755859375,
        -0.00005425069684861228
      ],
      "max": [
        298.4998474121094,
        278.4990234375,
        24.00005531311035
      ],
      "type": "VEC3"
    },
    {
      "bufferView": 13,
      "byteOffset": 0,
      "componentType": 5125,
      "normalized": false,
      "count": 9312,
      "min": [
        0
      ],
      "max": [
        1559
      ],
      "type": "SCALAR"
    },
    {
      "bufferView": 14,
      "byteOffset": 0,
      "componentType": 5126,
      "normalized": false,
      "count": 24,
      "min": [
        -1,
        -1,
        -1
      ],
      "max": [
        1,
        1,
        1
      ],
      "type": "VEC3"
    },
    {
      "bufferView": 14,
      "byteOffset": 12,
      "componentType": 5126,
      "normalized": false,
      "count": 24,
      "min": [
        -290.5001220703125,
        -9.500014305114746,
        -875.999755859375
      ],
      "max": [
        290.4998474121094,
        9.500016212463379,
        -335.0009765625
      ],
      "type": "VEC3"
    },
    {
      "bufferView": 15,
      "byteOffset": 0,
      "componentType": 5125,
      "normalized": false,
      "count": 36,
      "min": [
        0
      ],
      "max": [
        23
      ],
      "type": "SCALAR"
    },
    {
      "bufferView": 16,
      "byteOffset": 0,
      "componentType": 5126,
      "normalized": false,
      "count": 79,
      "min": [
        -1,
        -1,
        -1
      ],
      "max": [
        1,
        1,
        1
      ],
      "type": "VEC3"
    },
    {
      "bufferView": 16,
      "byteOffset": 12,
      "componentType": 5126,
      "normalized": false,
      "count": 79,
      "min": [
        -300.000244140625,
        -385.000244140625,
        -358.0003662109375
      ],
      "max": [
        300.000244140625,
        174.999267578125,
        223.49974060058594
      ],
      "type": "VEC3"
    },
    {
      "bufferView": 17,
      "byteOffset": 0,
      "componentType": 5125,
      "normalized": false,
      "count": 84,
      "min": [
        0
      ],
      "max": [
        78
      ],
      "type": "SCALAR"
    }
  ],
  "scene": 0,
  "scenes": [
    {
      "nodes": [
        1,
        3,
        5,
        7,
        9,
        11,
        13,
        15,
        17,
        19,
        21,
        23,
        25,
        27,
        29
      ],
      "name": "c_ovenTop"
    }
  ],
  "nodes": [
    {
      "name": "Box8222916",
      "matrix": [
        0.0010000000474974513,
        0,
        0,
        0,
        0,
        0.0010000000474974513,
        0,
        0,
        0,
        0,
        0.0010000000474974513,
        0,
        0,
        0,
        0,
        1
      ],
      "mesh": 0
    },
    {
      "children": [
        0
      ],
      "matrix": [
        1,
        0,
        0,
        0,
        0,
        3.422854177870249e-8,
        -0.9999999403953552,
        0,
        0,
        0.9999999403953552,
        3.422854177870249e-8,
        0,
        -0.7475059032440186,
        1.8802495002746582,
        -1.1700001955032349,
        1
      ]
    },
    {
      "name": "Rectangle068",
      "matrix": [
        0.0010000000474974513,
        0,
        0,
        0,
        0,
        0.0010000000474974513,
        0,
        0,
        0,
        0,
        0.0010000000474974513,
        0,
        0,
        0,
        0,
        1
      ],
      "mesh": 1
    },
    {
      "children": [
        2
      ],
      "matrix": [
        3.422852756784778e-8,
        -0.9999999403953552,
        1.9470718370939721e-7,
        0,
        0.9999999403953552,
        3.4228534673275135e-8,
        4.371139183945161e-8,
        0,
        -4.371139183945161e-8,
        1.9470718370939721e-7,
        1,
        0,
        -0.020314453169703484,
        1.7410392761230469,
        -0.7699999809265137,
        1
      ]
    },
    {
      "name": "Box8222917",
      "matrix": [
        0.0010000000474974513,
        0,
        0,
        0,
        0,
        0.0010000000474974513,
        0,
        0,
        0,
        0,
        0.0010000000474974513,
        0,
        0,
        0,
        0,
        1
      ],
      "mesh": 2
    },
    {
      "children": [
        4
      ],
      "matrix": [
        -1.4210854715202004e-14,
        -1,
        2.384185791015625e-7,
        0,
        0,
        -2.384185791015625e-7,
        -1,
        0,
        1,
        0,
        -1.4210854715202004e-14,
        0,
        -1.253755807876587,
        1.7403478622436523,
        -1.0499999523162842,
        1
      ]
    },
    {
      "name": "Rectangle053",
      "matrix": [
        0.0010000000474974513,
        0,
        0,
        0,
        0,
        0.0010000000474974513,
        0,
        0,
        0,
        0,
        0.0010000000474974513,
        0,
        0,
        0,
        0,
        1
      ],
      "mesh": 3
    },
    {
      "children": [
        6
      ],
      "matrix": [
        1,
        0,
        0,
        0,
        0,
        1,
        1.6292068494294654e-7,
        0,
        0,
        -1.6292068494294654e-7,
        1,
        0,
        0.44940149784088135,
        2.460000991821289,
        -0.7685003876686096,
        1
      ]
    },
    {
      "name": "Rectangle069",
      "matrix": [
        0.0010000000474974513,
        0,
        0,
        0,
        0,
        0.0010000000474974513,
        0,
        0,
        0,
        0,
        0.0010000000474974513,
        0,
        0,
        0,
        0,
        1
      ],
      "mesh": 4
    },
    {
      "children": [
        8
      ],
      "matrix": [
        1,
        0,
        0,
        0,
        0,
        1,
        1.6292068494294654e-7,
        0,
        0,
        -1.6292068494294654e-7,
        1,
        0,
        -0.7475058436393738,
        2.5650010108947754,
        -0.9919999837875366,
        1
      ]
    },
    {
      "name": "Box8222899",
      "matrix": [
        0.0010000000474974513,
        0,
        0,
        0,
        0,
        0.0010000000474974513,
        0,
        0,
        0,
        0,
        0.0010000000474974513,
        0,
        0,
        0,
        0,
        1
      ],
      "mesh": 5
    },
    {
      "children": [
        10
      ],
      "matrix": [
        1,
        0,
        0,
        0,
        0,
        3.422854177870249e-8,
        -0.9999999403953552,
        0,
        0,
        0.9999999403953552,
        3.422854177870249e-8,
        0,
        0.44940149784088135,
        3.0655009746551514,
        -0.7590001225471497,
        1
      ]
    },
    {
      "name": "Box8222899",
      "matrix": [
        0.0010000000474974513,
        0,
        0,
        0,
        0,
        0.0010000000474974513,
        0,
        0,
        0,
        0,
        0.0010000000474974513,
        0,
        0,
        0,
        0,
        1
      ],
      "mesh": 5
    },
    {
      "children": [
        12
      ],
      "matrix": [
        1,
        0,
        0,
        0,
        0,
        3.422854177870249e-8,
        -0.9999999403953552,
        0,
        0,
        0.9999999403953552,
        3.422854177870249e-8,
        0,
        -0.7475057244300842,
        3.0655009746551514,
        -0.7590001225471497,
        1
      ]
    },
    {
      "name": "Rectangle053",
      "matrix": [
        0.0010000000474974513,
        0,
        0,
        0,
        0,
        0.0010000000474974513,
        0,
        0,
        0,
        0,
        0.0010000000474974513,
        0,
        0,
        0,
        0,
        1
      ],
      "mesh": 3
    },
    {
      "children": [
        14
      ],
      "matrix": [
        1,
        0,
        0,
        0,
        0,
        1,
        1.6292068494294654e-7,
        0,
        0,
        -1.6292068494294654e-7,
        1,
        0,
        -0.7475057244300842,
        2.460000991821289,
        -0.7685003876686096,
        1
      ]
    },
    {
      "name": "Rectangle052",
      "matrix": [
        0.0010000000474974513,
        0,
        0,
        0,
        0,
        0.0010000000474974513,
        0,
        0,
        0,
        0,
        0.0010000000474974513,
        0,
        0,
        0,
        0,
        1
      ],
      "mesh": 6
    },
    {
      "children": [
        16
      ],
      "matrix": [
        1,
        0,
        0,
        0,
        0,
        1,
        1.6292068494294654e-7,
        0,
        0,
        -1.6292068494294654e-7,
        1,
        0,
        -0.1506347507238388,
        2.4601519107818604,
        -0.7685003876686096,
        1
      ]
    },
    {
      "name": "Box8222898",
      "matrix": [
        0.0010000000474974513,
        0,
        0,
        0,
        0,
        0.0010000000474974513,
        0,
        0,
        0,
        0,
        0.0010000000474974513,
        0,
        0,
        0,
        0,
        1
      ],
      "mesh": 7
    },
    {
      "children": [
        18
      ],
      "matrix": [
        1,
        0,
        0,
        0,
        0,
        3.422854177870249e-8,
        -0.9999999403953552,
        0,
        0,
        0.9999999403953552,
        3.422854177870249e-8,
        0,
        -0.1506347507238388,
        3.0656518936157227,
        -0.7590001225471497,
        1
      ]
    },
    {
      "name": "Rectangle069",
      "matrix": [
        0.0010000000474974513,
        0,
        0,
        0,
        0,
        0.0010000000474974513,
        0,
        0,
        0,
        0,
        0.0010000000474974513,
        0,
        0,
        0,
        0,
        1
      ],
      "mesh": 4
    },
    {
      "children": [
        20
      ],
      "matrix": [
        1,
        0,
        0,
        0,
        0,
        1,
        1.6292068494294654e-7,
        0,
        0,
        -1.6292068494294654e-7,
        1,
        0,
        0.4494013786315918,
        2.5650010108947754,
        -0.9919999837875366,
        1
      ]
    },
    {
      "name": "Rectangle068",
      "matrix": [
        0.0010000000474974513,
        0,
        0,
        0,
        0,
        0.0010000000474974513,
        0,
        0,
        0,
        0,
        0.0010000000474974513,
        0,
        0,
        0,
        0,
        1
      ],
      "mesh": 1
    },
    {
      "children": [
        22
      ],
      "matrix": [
        3.422852756784778e-8,
        -0.9999999403953552,
        1.9470718370939721e-7,
        0,
        0.9999999403953552,
        3.4228534673275135e-8,
        4.371139183945161e-8,
        0,
        -4.371139183945161e-8,
        1.9470718370939721e-7,
        1,
        0,
        1.1765928268432617,
        1.7410392761230469,
        -0.7699999809265137,
        1
      ]
    },
    {
      "name": "Rectangle032",
      "matrix": [
        0.0010000000474974513,
        0,
        0,
        0,
        0,
        0.0010000000474974513,
        0,
        0,
        0,
        0,
        0.0010000000474974513,
        0,
        0,
        0,
        0,
        1
      ],
      "mesh": 8
    },
    {
      "children": [
        24
      ],
      "matrix": [
        1,
        0,
        0,
        0,
        0,
        1,
        1.6292068494294654e-7,
        0,
        0,
        -1.6292068494294654e-7,
        1,
        0,
        -0.1506347507238388,
        2.5651519298553467,
        -0.9919999837875366,
        1
      ]
    },
    {
      "name": "Box8222917",
      "matrix": [
        0.0010000000474974513,
        0,
        0,
        0,
        0,
        0.0010000000474974513,
        0,
        0,
        0,
        0,
        0.0010000000474974513,
        0,
        0,
        0,
        0,
        1
      ],
      "mesh": 2
    },
    {
      "children": [
        26
      ],
      "matrix": [
        -1.4210854715202004e-14,
        -1,
        2.384185791015625e-7,
        0,
        0,
        -2.384185791015625e-7,
        -1,
        0,
        1,
        0,
        -1.4210854715202004e-14,
        0,
        -0.05684863403439522,
        1.7403478622436523,
        -1.0499999523162842,
        1
      ]
    },
    {
      "name": "Box8222916",
      "matrix": [
        0.0010000000474974513,
        0,
        0,
        0,
        0,
        0.0010000000474974513,
        0,
        0,
        0,
        0,
        0.0010000000474974513,
        0,
        0,
        0,
        0,
        1
      ],
      "mesh": 0
    },
    {
      "children": [
        28
      ],
      "matrix": [
        1,
        0,
        0,
        0,
        0,
        3.422854177870249e-8,
        -0.9999999403953552,
        0,
        0,
        0.9999999403953552,
        3.422854177870249e-8,
        0,
        0.4494013786315918,
        1.8802495002746582,
        -1.1700001955032349,
        1
      ]
    }
  ],
  "meshes": [
    {
      "primitives": [
        {
          "material": 0,
          "mode": 4,
          "attributes": {
            "NORMAL": 0,
            "POSITION": 1
          },
          "indices": 2
        }
      ]
    },
    {
      "primitives": [
        {
          "material": 0,
          "mode": 4,
          "attributes": {
            "NORMAL": 3,
            "POSITION": 4
          },
          "indices": 5
        }
      ]
    },
    {
      "primitives": [
        {
          "material": 0,
          "mode": 4,
          "attributes": {
            "NORMAL": 6,
            "POSITION": 7
          },
          "indices": 8
        }
      ]
    },
    {
      "primitives": [
        {
          "material": 0,
          "mode": 4,
          "attributes": {
            "NORMAL": 9,
            "POSITION": 10
          },
          "indices": 11
        }
      ]
    },
    {
      "primitives": [
        {
          "material": 0,
          "mode": 4,
          "attributes": {
            "NORMAL": 12,
            "POSITION": 13
          },
          "indices": 14
        }
      ]
    },
    {
      "primitives": [
        {
          "material": 0,
          "mode": 4,
          "attributes": {
            "NORMAL": 15,
            "POSITION": 16
          },
          "indices": 17
        }
      ]
    },
    {
      "primitives": [
        {
          "material": 0,
          "mode": 4,
          "attributes": {
            "NORMAL": 18,
            "POSITION": 19
          },
          "indices": 20
        }
      ]
    },
    {
      "primitives": [
        {
          "material": 0,
          "mode": 4,
          "attributes": {
            "NORMAL": 21,
            "POSITION": 22
          },
          "indices": 23
        }
      ]
    },
    {
      "primitives": [
        {
          "material": 0,
          "mode": 4,
          "attributes": {
            "NORMAL": 24,
            "POSITION": 25
          },
          "indices": 26
        }
      ]
    }
  ],
  "materials": [
    {
      "pbrMetallicRoughness": {
        "baseColorFactor": [
          0.1411764705882353,
          0.28627450980392155,
          0.5019607843137255,
          1
        ],
        "metallicFactor": 0,
        "roughnessFactor": 0.6000000238418579
      },
      "emissiveFactor": [
        0,
        0,
        0
      ],
      "alphaMode": "OPAQUE",
      "doubleSided": false
    }
  ]
}