{
  "asset": {
    "version": "2.0",
    "generator": "gltfeditor.com"
  },
  "buffers": [
    {
      "uri": "data:application/octet-stream;base64,",
      "byteLength": 7632
    },
    {
      "uri": "data:application/octet-stream;base64,",
      "byteLength": 45504
    },
    {
      "uri": "data:application/octet-stream;base64,",
      "byteLength": 720
    },
    {
      "uri": "data:application/octet-stream;base64,",
      "byteLength": 74688
    },
    {
      "uri": "data:application/octet-stream;base64,",
      "byteLength": 720
    },
    {
      "uri": "data:application/octet-stream;base64,",
      "byteLength": 74688
    },
    {
      "uri": "data:application/octet-stream;base64,",
      "byteLength": 720
    },
    {
      "uri": "data:application/octet-stream;base64,",
      "byteLength": 2136
    },
    {
      "uri": "data:application/octet-stream;base64,",
      "byteLength": 2136
    },
    {
      "uri": "data:application/octet-stream;base64,",
      "byteLength": 2136
    },
    {
      "uri": "data:application/octet-stream;base64,",
      "byteLength": 720
    }
  ],
  "bufferViews": [
    {
      "buffer": 0,
      "byteOffset": 0,
      "byteLength": 5280,
      "byteStride": 24,
      "target": 34962
    },
    {
      "buffer": 0,
      "byteOffset": 5280,
      "byteLength": 2352,
      "target": 34963
    },
    {
      "buffer": 1,
      "byteOffset": 0,
      "byteLength": 23232,
      "byteStride": 24,
      "target": 34962
    },
    {
      "buffer": 1,
      "byteOffset": 23232,
      "byteLength": 22272,
      "target": 34963
    },
    {
      "buffer": 2,
      "byteOffset": 0,
      "byteLength": 576,
      "byteStride": 24,
      "target": 34962
    },
    {
      "buffer": 2,
      "byteOffset": 576,
      "byteLength": 144,
      "target": 34963
    },
    {
      "buffer": 3,
      "byteOffset": 0,
      "byteLength": 37440,
      "byteStride": 24,
      "target": 34962
    },
    {
      "buffer": 3,
      "byteOffset": 37440,
      "byteLength": 37248,
      "target": 34963
    },
    {
      "buffer": 4,
      "byteOffset": 0,
      "byteLength": 576,
      "byteStride": 24,
      "target": 34962
    },
    {
      "buffer": 4,
      "byteOffset": 576,
      "byteLength": 144,
      "target": 34963
    },
    {
      "buffer": 5,
      "byteOffset": 0,
      "byteLength": 37440,
      "byteStride": 24,
      "target": 34962
    },
    {
      "buffer": 5,
      "byteOffset": 37440,
      "byteLength": 37248,
      "target": 34963
    },
    {
      "buffer": 6,
      "byteOffset": 0,
      "byteLength": 576,
      "byteStride": 24,
      "target": 34962
    },
    {
      "buffer": 6,
      "byteOffset": 576,
      "byteLength": 144,
      "target": 34963
    },
    {
      "buffer": 7,
      "byteOffset": 0,
      "byteLength": 1800,
      "byteStride": 24,
      "target": 34962
    },
    {
      "buffer": 7,
      "byteOffset": 1800,
      "byteLength": 336,
      "target": 34963
    },
    {
      "buffer": 8,
      "byteOffset": 0,
      "byteLength": 1800,
      "byteStride": 24,
      "target": 34962
    },
    {
      "buffer": 8,
      "byteOffset": 1800,
      "byteLength": 336,
      "target": 34963
    },
    {
      "buffer": 9,
      "byteOffset": 0,
      "byteLength": 1800,
      "byteStride": 24,
      "target": 34962
    },
    {
      "buffer": 9,
      "byteOffset": 1800,
      "byteLength": 336,
      "target": 34963
    },
    {
      "buffer": 10,
      "byteOffset": 0,
      "byteLength": 576,
      "byteStride": 24,
      "target": 34962
    },
    {
      "buffer": 10,
      "byteOffset": 576,
      "byteLength": 144,
      "target": 34963
    }
  ],
  "accessors": [
    {
      "bufferView": 0,
      "byteOffset": 0,
      "componentType": 5126,
      "normalized": false,
      "count": 220,
      "min": [
        -1,
        -0.9999995827674866,
        -1
      ],
      "max": [
        1,
        1,
        1
      ],
      "type": "VEC3"
    },
    {
      "bufferView": 0,
      "byteOffset": 12,
      "componentType": 5126,
      "normalized": false,
      "count": 220,
      "min": [
        -2596,
        -4.7683701609457785e-7,
        0
      ],
      "max": [
        2596,
        15.684206008911133,
        80.2001953125
      ],
      "type": "VEC3"
    },
    {
      "bufferView": 1,
      "byteOffset": 0,
      "componentType": 5125,
      "normalized": false,
      "count": 588,
      "min": [
        0
      ],
      "max": [
        219
      ],
      "type": "SCALAR"
    },
    {
      "bufferView": 2,
      "byteOffset": 0,
      "componentType": 5126,
      "normalized": false,
      "count": 968,
      "min": [
        -0.9963274598121643,
        -0.9963171482086182,
        -0.9956592917442322
      ],
      "max": [
        0.9963274598121643,
        0.9963171482086182,
        0.9870821237564087
      ],
      "type": "VEC3"
    },
    {
      "bufferView": 2,
      "byteOffset": 12,
      "componentType": 5126,
      "normalized": false,
      "count": 968,
      "min": [
        -348.5,
        -613.5,
        -3.716338596859714e-7
      ],
      "max": [
        348.5,
        613.5,
        24
      ],
      "type": "VEC3"
    },
    {
      "bufferView": 3,
      "byteOffset": 0,
      "componentType": 5125,
      "normalized": false,
      "count": 5568,
      "min": [
        0
      ],
      "max": [
        967
      ],
      "type": "SCALAR"
    },
    {
      "bufferView": 4,
      "byteOffset": 0,
      "componentType": 5126,
      "normalized": false,
      "count": 24,
      "min": [
        -1,
        -1,
        -1
      ],
      "max": [
        1,
        1,
        1
      ],
      "type": "VEC3"
    },
    {
      "bufferView": 4,
      "byteOffset": 12,
      "componentType": 5126,
      "normalized": false,
      "count": 24,
      "min": [
        -340.5,
        -9.5,
        -1211
      ],
      "max": [
        340.5,
        9.5,
        0
      ],
      "type": "VEC3"
    },
    {
      "bufferView": 5,
      "byteOffset": 0,
      "componentType": 5125,
      "normalized": false,
      "count": 36,
      "min": [
        0
      ],
      "max": [
        23
      ],
      "type": "SCALAR"
    },
    {
      "bufferView": 6,
      "byteOffset": 0,
      "componentType": 5126,
      "normalized": false,
      "count": 1560,
      "min": [
        -0.9983844757080078,
        -0.998385488986969,
        -0.9969385862350464
      ],
      "max": [
        0.9983842968940735,
        0.9983711242675781,
        0.9969401955604553
      ],
      "type": "VEC3"
    },
    {
      "bufferView": 6,
      "byteOffset": 12,
      "componentType": 5126,
      "normalized": false,
      "count": 1560,
      "min": [
        -348.5,
        -383.49993896484375,
        -0.00002748274891928304
      ],
      "max": [
        348.5,
        383.49951171875,
        24.00002098083496
      ],
      "type": "VEC3"
    },
    {
      "bufferView": 7,
      "byteOffset": 0,
      "componentType": 5125,
      "normalized": false,
      "count": 9312,
      "min": [
        0
      ],
      "max": [
        1559
      ],
      "type": "SCALAR"
    },
    {
      "bufferView": 8,
      "byteOffset": 0,
      "componentType": 5126,
      "normalized": false,
      "count": 24,
      "min": [
        -1,
        -1,
        -1
      ],
      "max": [
        1,
        1,
        1
      ],
      "type": "VEC3"
    },
    {
      "bufferView": 8,
      "byteOffset": 12,
      "componentType": 5126,
      "normalized": false,
      "count": 24,
      "min": [
        -340.5,
        -9.50001049041748,
        -980.9998779296875
      ],
      "max": [
        340.5,
        9.50001049041748,
        -230.00054931640625
      ],
      "type": "VEC3"
    },
    {
      "bufferView": 9,
      "byteOffset": 0,
      "componentType": 5125,
      "normalized": false,
      "count": 36,
      "min": [
        0
      ],
      "max": [
        23
      ],
      "type": "SCALAR"
    },
    {
      "bufferView": 10,
      "byteOffset": 0,
      "componentType": 5126,
      "normalized": false,
      "count": 1560,
      "min": [
        -0.998385488986969,
        -0.998385488986969,
        -0.9969386458396912
      ],
      "max": [
        0.998384416103363,
        0.998385488986969,
        0.9969403147697449
      ],
      "type": "VEC3"
    },
    {
      "bufferView": 10,
      "byteOffset": 12,
      "componentType": 5126,
      "normalized": false,
      "count": 1560,
      "min": [
        -348.5,
        -278.499755859375,
        -0.000054250700486591086
      ],
      "max": [
        348.5,
        278.4990234375,
        24.00005531311035
      ],
      "type": "VEC3"
    },
    {
      "bufferView": 11,
      "byteOffset": 0,
      "componentType": 5125,
      "normalized": false,
      "count": 9312,
      "min": [
        0
      ],
      "max": [
        1559
      ],
      "type": "SCALAR"
    },
    {
      "bufferView": 12,
      "byteOffset": 0,
      "componentType": 5126,
      "normalized": false,
      "count": 24,
      "min": [
        -1,
        -1,
        -1
      ],
      "max": [
        1,
        1,
        1
      ],
      "type": "VEC3"
    },
    {
      "bufferView": 12,
      "byteOffset": 12,
      "componentType": 5126,
      "normalized": false,
      "count": 24,
      "min": [
        -340.5,
        -9.500014305114746,
        -875.999755859375
      ],
      "max": [
        340.5,
        9.500014305114746,
        -335.0009765625
      ],
      "type": "VEC3"
    },
    {
      "bufferView": 13,
      "byteOffset": 0,
      "componentType": 5125,
      "normalized": false,
      "count": 36,
      "min": [
        0
      ],
      "max": [
        23
      ],
      "type": "SCALAR"
    },
    {
      "bufferView": 14,
      "byteOffset": 0,
      "componentType": 5126,
      "normalized": false,
      "count": 75,
      "min": [
        -1,
        -1,
        -1
      ],
      "max": [
        1,
        1,
        1
      ],
      "type": "VEC3"
    },
    {
      "bufferView": 14,
      "byteOffset": 12,
      "componentType": 5126,
      "normalized": false,
      "count": 75,
      "min": [
        -350.00006103515625,
        -385.000244140625,
        -358.0003662109375
      ],
      "max": [
        350.0001220703125,
        844.999755859375,
        223.49974060058594
      ],
      "type": "VEC3"
    },
    {
      "bufferView": 15,
      "byteOffset": 0,
      "componentType": 5125,
      "normalized": false,
      "count": 84,
      "min": [
        0
      ],
      "max": [
        74
      ],
      "type": "SCALAR"
    },
    {
      "bufferView": 16,
      "byteOffset": 0,
      "componentType": 5126,
      "normalized": false,
      "count": 75,
      "min": [
        -1,
        -1,
        -1
      ],
      "max": [
        1,
        1,
        1
      ],
      "type": "VEC3"
    },
    {
      "bufferView": 16,
      "byteOffset": 12,
      "componentType": 5126,
      "normalized": false,
      "count": 75,
      "min": [
        -350.00006103515625,
        -385.000244140625,
        -358.0003662109375
      ],
      "max": [
        350.0001220703125,
        385.000244140625,
        223.49974060058594
      ],
      "type": "VEC3"
    },
    {
      "bufferView": 17,
      "byteOffset": 0,
      "componentType": 5125,
      "normalized": false,
      "count": 84,
      "min": [
        0
      ],
      "max": [
        74
      ],
      "type": "SCALAR"
    },
    {
      "bufferView": 18,
      "byteOffset": 0,
      "componentType": 5126,
      "normalized": false,
      "count": 75,
      "min": [
        -1,
        -1,
        -1
      ],
      "max": [
        1,
        1,
        1
      ],
      "type": "VEC3"
    },
    {
      "bufferView": 18,
      "byteOffset": 12,
      "componentType": 5126,
      "normalized": false,
      "count": 75,
      "min": [
        -350.00006103515625,
        -385.000244140625,
        -358.0003662109375
      ],
      "max": [
        350.0001220703125,
        174.999267578125,
        223.49974060058594
      ],
      "type": "VEC3"
    },
    {
      "bufferView": 19,
      "byteOffset": 0,
      "componentType": 5125,
      "normalized": false,
      "count": 84,
      "min": [
        0
      ],
      "max": [
        74
      ],
      "type": "SCALAR"
    },
    {
      "bufferView": 20,
      "byteOffset": 0,
      "componentType": 5126,
      "normalized": false,
      "count": 24,
      "min": [
        -1,
        -1,
        -1
      ],
      "max": [
        1,
        1,
        1
      ],
      "type": "VEC3"
    },
    {
      "bufferView": 20,
      "byteOffset": 12,
      "componentType": 5126,
      "normalized": false,
      "count": 24,
      "min": [
        -10,
        -1320,
        0
      ],
      "max": [
        10,
        1320,
        600
      ],
      "type": "VEC3"
    },
    {
      "bufferView": 21,
      "byteOffset": 0,
      "componentType": 5125,
      "normalized": false,
      "count": 36,
      "min": [
        0
      ],
      "max": [
        23
      ],
      "type": "SCALAR"
    }
  ],
  "scene": 0,
  "scenes": [
    {
      "nodes": [
        1,
        3,
        5,
        7,
        9,
        11,
        13,
        15,
        17,
        19,
        21,
        23
      ],
      "name": "c_triple"
    }
  ],
  "nodes": [
    {
      "name": "SPR-5051",
      "matrix": [
        0.0010000000474974513,
        0,
        0,
        0,
        0,
        0.0010000000474974513,
        0,
        0,
        0,
        0,
        0.0010000000474974513,
        0,
        0,
        0,
        0,
        1
      ],
      "mesh": 0
    },
    {
      "children": [
        0
      ],
      "matrix": [
        0.1343080699443817,
        0,
        0,
        0,
        0,
        3.422854177870249e-8,
        -0.9999999403953552,
        0,
        0,
        0.9999999403953552,
        3.422854177870249e-8,
        0,
        -3.411374092102051,
        0.10413622856140137,
        -0.7900002598762512,
        1
      ]
    },
    {
      "name": "Rectangle044",
      "matrix": [
        0.0010000000474974513,
        0,
        0,
        0,
        0,
        0.0010000000474974513,
        0,
        0,
        0,
        0,
        0.0010000000474974513,
        0,
        0,
        0,
        0,
        1
      ],
      "mesh": 1
    },
    {
      "children": [
        2
      ],
      "matrix": [
        1,
        0,
        0,
        0,
        0,
        1,
        1.6292068494294654e-7,
        0,
        0,
        -1.6292068494294654e-7,
        1,
        0,
        -3.4105985164642334,
        1.5627163648605347,
        -0.7685003280639648,
        1
      ]
    },
    {
      "name": "Box8222890",
      "matrix": [
        0.0010000000474974513,
        0,
        0,
        0,
        0,
        0.0010000000474974513,
        0,
        0,
        0,
        0,
        0.0010000000474974513,
        0,
        0,
        0,
        0,
        1
      ],
      "mesh": 2
    },
    {
      "children": [
        4
      ],
      "matrix": [
        1,
        0,
        0,
        0,
        0,
        3.422854177870249e-8,
        -0.9999999403953552,
        0,
        0,
        0.9999999403953552,
        3.422854177870249e-8,
        0,
        -3.4105985164642334,
        2.1682162284851074,
        -0.7590001821517944,
        1
      ]
    },
    {
      "name": "Rectangle045",
      "matrix": [
        0.0010000000474974513,
        0,
        0,
        0,
        0,
        0.0010000000474974513,
        0,
        0,
        0,
        0,
        0.0010000000474974513,
        0,
        0,
        0,
        0,
        1
      ],
      "mesh": 3
    },
    {
      "children": [
        6
      ],
      "matrix": [
        1,
        0,
        0,
        0,
        0,
        1,
        1.6292068494294654e-7,
        0,
        0,
        -1.6292068494294654e-7,
        1,
        0,
        -3.4105985164642334,
        0.5627163052558899,
        -0.7685003280639648,
        1
      ]
    },
    {
      "name": "Box8222891",
      "matrix": [
        0.0010000000474974513,
        0,
        0,
        0,
        0,
        0.0010000000474974513,
        0,
        0,
        0,
        0,
        0.0010000000474974513,
        0,
        0,
        0,
        0,
        1
      ],
      "mesh": 4
    },
    {
      "children": [
        8
      ],
      "matrix": [
        1,
        0,
        0,
        0,
        0,
        3.422854177870249e-8,
        -0.9999999403953552,
        0,
        0,
        0.9999999403953552,
        3.422854177870249e-8,
        0,
        -3.4105985164642334,
        1.168216347694397,
        -0.7590001821517944,
        1
      ]
    },
    {
      "name": "Rectangle046",
      "matrix": [
        0.0010000000474974513,
        0,
        0,
        0,
        0,
        0.0010000000474974513,
        0,
        0,
        0,
        0,
        0.0010000000474974513,
        0,
        0,
        0,
        0,
        1
      ],
      "mesh": 5
    },
    {
      "children": [
        10
      ],
      "matrix": [
        1,
        0,
        0,
        0,
        0,
        1,
        1.6292068494294654e-7,
        0,
        0,
        -1.6292068494294654e-7,
        1,
        0,
        -3.4105985164642334,
        2.457717180252075,
        -0.7685003280639648,
        1
      ]
    },
    {
      "name": "Box8222892",
      "matrix": [
        0.0010000000474974513,
        0,
        0,
        0,
        0,
        0.0010000000474974513,
        0,
        0,
        0,
        0,
        0.0010000000474974513,
        0,
        0,
        0,
        0,
        1
      ],
      "mesh": 6
    },
    {
      "children": [
        12
      ],
      "matrix": [
        1,
        0,
        0,
        0,
        0,
        3.422854177870249e-8,
        -0.9999999403953552,
        0,
        0,
        0.9999999403953552,
        3.422854177870249e-8,
        0,
        -3.4105985164642334,
        3.0632174015045166,
        -0.7590001821517944,
        1
      ]
    },
    {
      "name": "Rectangle025",
      "matrix": [
        0.0010000000474974513,
        0,
        0,
        0,
        0,
        0.0010000000474974513,
        0,
        0,
        0,
        0,
        0.0010000000474974513,
        0,
        0,
        0,
        0,
        1
      ],
      "mesh": 7
    },
    {
      "children": [
        14
      ],
      "matrix": [
        1,
        0,
        0,
        0,
        0,
        1,
        1.6292068494294654e-7,
        0,
        0,
        -1.6292068494294654e-7,
        1,
        0,
        -3.4105985164642334,
        1.3327172994613647,
        -0.9919999837875366,
        1
      ]
    },
    {
      "name": "Rectangle024",
      "matrix": [
        0.0010000000474974513,
        0,
        0,
        0,
        0,
        0.0010000000474974513,
        0,
        0,
        0,
        0,
        0.0010000000474974513,
        0,
        0,
        0,
        0,
        1
      ],
      "mesh": 8
    },
    {
      "children": [
        16
      ],
      "matrix": [
        1,
        0,
        0,
        0,
        0,
        1,
        1.6292068494294654e-7,
        0,
        0,
        -1.6292068494294654e-7,
        1,
        0,
        -3.4105985164642334,
        0.5627163052558899,
        -0.9919999837875366,
        1
      ]
    },
    {
      "name": "Rectangle026",
      "matrix": [
        0.0010000000474974513,
        0,
        0,
        0,
        0,
        0.0010000000474974513,
        0,
        0,
        0,
        0,
        0.0010000000474974513,
        0,
        0,
        0,
        0,
        1
      ],
      "mesh": 9
    },
    {
      "children": [
        18
      ],
      "matrix": [
        1,
        0,
        0,
        0,
        0,
        1,
        1.6292068494294654e-7,
        0,
        0,
        -1.6292068494294654e-7,
        1,
        0,
        -3.4105985164642334,
        2.5627171993255615,
        -0.9919999837875366,
        1
      ]
    },
    {
      "name": "Box8222857",
      "matrix": [
        0.0010000000474974513,
        0,
        0,
        0,
        0,
        0.0010000000474974513,
        0,
        0,
        0,
        0,
        0.0010000000474974513,
        0,
        0,
        0,
        0,
        1
      ],
      "mesh": 10
    },
    {
      "children": [
        20
      ],
      "matrix": [
        1,
        0,
        0,
        0,
        0,
        1,
        1.6292068494294654e-7,
        0,
        0,
        -1.6292068494294654e-7,
        1,
        0,
        -3.7705986499786377,
        1.4199994802474976,
        -1.350000262260437,
        1
      ]
    },
    {
      "name": "Box8222857",
      "matrix": [
        0.0010000000474974513,
        0,
        0,
        0,
        0,
        0.0010000000474974513,
        0,
        0,
        0,
        0,
        0.0010000000474974513,
        0,
        0,
        0,
        0,
        1
      ],
      "mesh": 10
    },
    {
      "children": [
        22
      ],
      "matrix": [
        1,
        0,
        0,
        0,
        0,
        1,
        1.6292068494294654e-7,
        0,
        0,
        -1.6292068494294654e-7,
        1,
        0,
        -3.0539140701293945,
        1.4199994802474976,
        -1.350000262260437,
        1
      ]
    }
  ],
  "meshes": [
    {
      "primitives": [
        {
          "material": 0,
          "mode": 4,
          "attributes": {
            "NORMAL": 0,
            "POSITION": 1
          },
          "indices": 2
        }
      ]
    },
    {
      "primitives": [
        {
          "material": 0,
          "mode": 4,
          "attributes": {
            "NORMAL": 3,
            "POSITION": 4
          },
          "indices": 5
        }
      ]
    },
    {
      "primitives": [
        {
          "material": 0,
          "mode": 4,
          "attributes": {
            "NORMAL": 6,
            "POSITION": 7
          },
          "indices": 8
        }
      ]
    },
    {
      "primitives": [
        {
          "material": 0,
          "mode": 4,
          "attributes": {
            "NORMAL": 9,
            "POSITION": 10
          },
          "indices": 11
        }
      ]
    },
    {
      "primitives": [
        {
          "material": 0,
          "mode": 4,
          "attributes": {
            "NORMAL": 12,
            "POSITION": 13
          },
          "indices": 14
        }
      ]
    },
    {
      "primitives": [
        {
          "material": 0,
          "mode": 4,
          "attributes": {
            "NORMAL": 15,
            "POSITION": 16
          },
          "indices": 17
        }
      ]
    },
    {
      "primitives": [
        {
          "material": 0,
          "mode": 4,
          "attributes": {
            "NORMAL": 18,
            "POSITION": 19
          },
          "indices": 20
        }
      ]
    },
    {
      "primitives": [
        {
          "material": 0,
          "mode": 4,
          "attributes": {
            "NORMAL": 21,
            "POSITION": 22
          },
          "indices": 23
        }
      ]
    },
    {
      "primitives": [
        {
          "material": 0,
          "mode": 4,
          "attributes": {
            "NORMAL": 24,
            "POSITION": 25
          },
          "indices": 26
        }
      ]
    },
    {
      "primitives": [
        {
          "material": 0,
          "mode": 4,
          "attributes": {
            "NORMAL": 27,
            "POSITION": 28
          },
          "indices": 29
        }
      ]
    },
    {
      "primitives": [
        {
          "material": 0,
          "mode": 4,
          "attributes": {
            "NORMAL": 30,
            "POSITION": 31
          },
          "indices": 32
        }
      ]
    }
  ],
  "materials": [
    {
      "pbrMetallicRoughness": {
        "baseColorFactor": [
          0.1411764705882353,
          0.28627450980392155,
          0.5019607843137255,
          1
        ],
        "metallicFactor": 0,
        "roughnessFactor": 0.6000000238418579
      },
      "emissiveFactor": [
        0,
        0,
        0
      ],
      "alphaMode": "OPAQUE",
      "doubleSided": false
    }
  ]
}