{"accessors" : [{"bufferView" : 0, "byteOffset" : 0, "componentType" : 5123, "count" : 36, "type" : "SCALAR", "max" : [35], "min" : [0]}, {"bufferView" : 1, "byteOffset" : 0, "componentType" : 5126, "count" : 36, "type" : "VEC3", "max" : [233.25, 159.99966430664062, 18], "min" : [-233.25, -140.00027465820312, 0], "name" : "POSITION"}, {"bufferView" : 1, "byteOffset" : 12, "componentType" : 5126, "count" : 36, "type" : "VEC3", "max" : [1.0000044107437134, 1.0000044107437134, 1.0000044107437134], "min" : [-1.0000044107437134, -1.0000044107437134, -1.0000044107437134], "name" : "NORMAL"}, {"bufferView" : 0, "byteOffset" : 72, "componentType" : 5123, "count" : 84, "type" : "SCALAR", "max" : [83], "min" : [0]}, {"bufferView" : 2, "byteOffset" : 0, "componentType" : 5126, "count" : 84, "type" : "VEC3", "max" : [140.3480987548828, 300.0002746582031, 757.5001831054688], "min" : [-439.652587890625, -39.9998779296875, 254.99978637695312], "name" : "POSITION"}, {"bufferView" : 2, "byteOffset" : 12, "componentType" : 5126, "count" : 84, "type" : "VEC3", "max" : [1.0000044107437134, 1.0000044107437134, 1.0000044107437134], "min" : [-1.0000044107437134, -1.0000044107437134, -1.0000044107437134], "name" : "NORMAL"}, {"bufferView" : 0, "byteOffset" : 240, "componentType" : 5123, "count" : 5748, "type" : "SCALAR", "max" : [4800], "min" : [0]}, {"bufferView" : 3, "byteOffset" : 0, "componentType" : 5126, "count" : 4801, "type" : "VEC3", "max" : [141.03961181640625, -477.44097900390625, -218.00027465820312], "min" : [-437.4607238769531, -976.9412231445312, -240.0003662109375], "name" : "POSITION"}, {"bufferView" : 3, "byteOffset" : 12, "componentType" : 5126, "count" : 4801, "type" : "VEC3", "max" : [1.0000044107437134, 1.0000044107437134, 1.0000044107437134], "min" : [-1.0000044107437134, -1.0000044107437134, -1.0000044107437134], "name" : "NORMAL"}, {"bufferView" : 0, "byteOffset" : 11736, "componentType" : 5123, "count" : 9312, "type" : "SCALAR", "max" : [7765], "min" : [0]}, {"bufferView" : 4, "byteOffset" : 0, "componentType" : 5126, "count" : 7766, "type" : "VEC3", "max" : [249.75, 278.4990234375, 24.00005531311035], "min" : [-249.75, -278.499755859375, -5.425069684861228E-05], "name" : "POSITION"}, {"bufferView" : 4, "byteOffset" : 12, "componentType" : 5126, "count" : 7766, "type" : "VEC3", "max" : [0.9983898997306824, 0.998389720916748, 0.9969446063041687], "min" : [-0.9983898997306824, -0.9983897805213928, -0.9969431757926941], "name" : "NORMAL"}, {"bufferView" : 0, "byteOffset" : 30360, "componentType" : 5123, "count" : 36, "type" : "SCALAR", "max" : [35], "min" : [0]}, {"bufferView" : 5, "byteOffset" : 0, "componentType" : 5126, "count" : 36, "type" : "VEC3", "max" : [241.75, 9.500015258789062, -335.0009765625], "min" : [-241.75, -9.500014305114746, -875.999755859375], "name" : "POSITION"}, {"bufferView" : 5, "byteOffset" : 12, "componentType" : 5126, "count" : 36, "type" : "VEC3", "max" : [1.0000044107437134, 1.0000044107437134, 1.0000044107437134], "min" : [-1.0000044107437134, -1.0000044107437134, -1.0000044107437134], "name" : "NORMAL"}, {"bufferView" : 0, "byteOffset" : 30432, "componentType" : 5123, "count" : 84, "type" : "SCALAR", "max" : [83], "min" : [0]}, {"bufferView" : 6, "byteOffset" : 0, "componentType" : 5126, "count" : 84, "type" : "VEC3", "max" : [251.25, 174.999267578125, 223.49974060058594], "min" : [-251.25, -385.000244140625, -358.0003662109375], "name" : "POSITION"}, {"bufferView" : 6, "byteOffset" : 12, "componentType" : 5126, "count" : 84, "type" : "VEC3", "max" : [1.0000044107437134, 1.0000044107437134, 1.0000044107437134], "min" : [-1.0000044107437134, -1.0000044107437134, -1.0000044107437134], "name" : "NORMAL"}], "asset" : {"generator" : "Aspose.3D 23.4.0", "version" : "2.0"}, "buffers" : [{"uri" : "data:application/octet-stream;base64,", "byteLength" : 397828}], "bufferViews" : [{"buffer" : 0, "byteOffset" : 0, "byteLength" : 30600, "target" : 34963}, {"buffer" : 0, "byteOffset" : 30604, "byteLength" : 864, "byteStride" : 24, "target" : 34962}, {"buffer" : 0, "byteOffset" : 31472, "byteLength" : 2016, "byteStride" : 24, "target" : 34962}, {"buffer" : 0, "byteOffset" : 33492, "byteLength" : 137952, "byteStride" : 24, "target" : 34962}, {"buffer" : 0, "byteOffset" : 171448, "byteLength" : 223488, "byteStride" : 24, "target" : 34962}, {"buffer" : 0, "byteOffset" : 394940, "byteLength" : 864, "byteStride" : 24, "target" : 34962}, {"buffer" : 0, "byteOffset" : 395808, "byteLength" : 2016, "byteStride" : 24, "target" : 34962}], "materials" : [{"name" : "M_03___Default", "pbrMetallicRoughness" : {"baseColorFactor" : [0.022085977718234062, 0.04740722104907036, 0.020293839275836945, 1], "metallicFactor" : 0, "roughnessFactor" : 0.46000000834465027}, "emissiveFactor" : [0, 0, 0], "alphaMode" : "OPAQUE", "doubleSided" : false}, {"name" : "M_03___Default", "pbrMetallicRoughness" : {"baseColorFactor" : [0.022085977718234062, 0.04740722104907036, 0.020293839275836945, 1], "metallicFactor" : 0, "roughnessFactor" : 0.46000000834465027}, "emissiveFactor" : [0, 0, 0], "alphaMode" : "OPAQUE", "doubleSided" : false}, {"name" : "M_03___Default", "pbrMetallicRoughness" : {"baseColorFactor" : [0.022085977718234062, 0.04740722104907036, 0.020293839275836945, 1], "metallicFactor" : 0, "roughnessFactor" : 0.46000000834465027}, "emissiveFactor" : [0, 0, 0], "alphaMode" : "OPAQUE", "doubleSided" : false}, {"name" : "M_03___Default", "pbrMetallicRoughness" : {"baseColorFactor" : [0.022085977718234062, 0.04740722104907036, 0.020293839275836945, 1], "metallicFactor" : 0, "roughnessFactor" : 0.46000000834465027}, "emissiveFactor" : [0, 0, 0], "alphaMode" : "OPAQUE", "doubleSided" : false}, {"name" : "M_03___Default", "pbrMetallicRoughness" : {"baseColorFactor" : [0.022085977718234062, 0.04740722104907036, 0.020293839275836945, 1], "metallicFactor" : 0, "roughnessFactor" : 0.46000000834465027}, "emissiveFactor" : [0, 0, 0], "alphaMode" : "OPAQUE", "doubleSided" : false}, {"name" : "M_03___Default", "pbrMetallicRoughness" : {"baseColorFactor" : [0.022085977718234062, 0.04740722104907036, 0.020293839275836945, 1], "metallicFactor" : 0, "roughnessFactor" : 0.46000000834465027}, "emissiveFactor" : [0, 0, 0], "alphaMode" : "OPAQUE", "doubleSided" : false}], "meshes" : [{"primitives" : [{"attributes" : {"POSITION" : 1, "NORMAL" : 2}, "indices" : 0, "material" : 0, "mode" : 4}]}, {"primitives" : [{"attributes" : {"POSITION" : 4, "NORMAL" : 5}, "indices" : 3, "material" : 1, "mode" : 4}]}, {"primitives" : [{"attributes" : {"POSITION" : 7, "NORMAL" : 8}, "indices" : 6, "material" : 2, "mode" : 4}]}, {"primitives" : [{"attributes" : {"POSITION" : 10, "NORMAL" : 11}, "indices" : 9, "material" : 3, "mode" : 4}]}, {"primitives" : [{"attributes" : {"POSITION" : 13, "NORMAL" : 14}, "indices" : 12, "material" : 4, "mode" : 4}]}, {"primitives" : [{"attributes" : {"POSITION" : 16, "NORMAL" : 17}, "indices" : 15, "material" : 5, "mode" : 4}]}], "nodes" : [{"matrix" : [0.001, 0, 0, 0, 0, 0.001, 0, 0, 0, 0, 0.001, 0, 0, 0, 0, 1], "mesh" : 0, "name" : "Box8222882"}, {"children" : [0], "matrix" : [1, 0, 0, 0, 0, 0, -1, 0, 0, 1, 0, 0, 0, -0.28975, -0.1227498779296875, 1], "name" : "Node #1"}, {"matrix" : [0.001, 0, 0, 0, 0, 0.001, 0, 0, 0, 0, 0.001, 0, 0, 0, 0, 1], "mesh" : 1, "name" : "Box8222873"}, {"children" : [2], "matrix" : [0, -1, 0, 0, 0, 0, -1, 0, 1, 0, 0, 0, -0.50625, -0.42965222167968753, -0.002749755859375, 1], "name" : "Node #3"}, {"matrix" : [0.001, 0, 0, 0, 0, 0.001, 0, 0, 0, 0, 0.001, 0, 0, 0, 0, 1], "mesh" : 2, "name" : "Rectangle017"}, {"children" : [4], "matrix" : [2.384185791015625E-07, -1, 3.5251460417384806E-07, 0, 1, 2.384185791015625E-07, 8.344650268554688E-07, 0, -8.344650268554688E-07, 3.5251460417384806E-07, 1, 0, 0.7271911621093751, -0.42896075439453124, 0.2772503662109375, 1], "name" : "Node #5"}, {"matrix" : [0.001, 0, 0, 0, 0, 0.001, 0, 0, 0, 0, 0.001, 0, 0, 0, 0, 1], "mesh" : 3, "name" : "Rectangle047"}, {"children" : [6], "matrix" : [1, 0, 0, 0, 0, 1, 0, 0, 0, 0, 1, 0, 0, 0.290001220703125, 0.27875, 1], "name" : "Node #7"}, {"matrix" : [0.001, 0, 0, 0, 0, 0.001, 0, 0, 0, 0, 0.001, 0, 0, 0, 0, 1], "mesh" : 4, "name" : "Box8222893"}, {"children" : [8], "matrix" : [1, 0, 0, 0, 0, 0, -1, 0, 0, 1, 0, 0, 0, 0.895501220703125, 0.28825, 1], "name" : "Node #9"}, {"matrix" : [0.001, 0, 0, 0, 0, 0.001, 0, 0, 0, 0, 0.001, 0, 0, 0, 0, 1], "mesh" : 5, "name" : "Rectangle027"}, {"children" : [10], "matrix" : [1, 0, 0, 0, 0, 1, 0, 0, 0, 0, 1, 0, 0, 0.395001220703125, 0.055250244140625, 1], "name" : "Node #11"}], "scene" : 0, "scenes" : [{"nodes" : [1, 3, 5, 7, 9, 11]}]}