{"accessors" : [{"bufferView" : 0, "byteOffset" : 0, "componentType" : 5123, "count" : 36, "type" : "SCALAR", "max" : [35], "min" : [0]}, {"bufferView" : 1, "byteOffset" : 0, "componentType" : 5126, "count" : 36, "type" : "VEC3", "max" : [225.49948120117188, 9.499988555908203, 328.4996032714844], "min" : [-225.50027465820312, -9.500033378601074, -422.49981689453125], "name" : "POSITION"}, {"bufferView" : 1, "byteOffset" : 12, "componentType" : 5126, "count" : 36, "type" : "VEC3", "max" : [1.0000044107437134, 1.0000044107437134, 1.0000044107437134], "min" : [-1.0000044107437134, -1.0000044107437134, -1.0000044107437134], "name" : "NORMAL"}, {"bufferView" : 0, "byteOffset" : 72, "componentType" : 5123, "count" : 84, "type" : "SCALAR", "max" : [83], "min" : [0]}, {"bufferView" : 2, "byteOffset" : 0, "componentType" : 5126, "count" : 84, "type" : "VEC3", "max" : [705.000244140625, 385.000244140625, 223.49974060058594], "min" : [-235.0001220703125, -385.00018310546875, -358.0003967285156], "name" : "POSITION"}, {"bufferView" : 2, "byteOffset" : 12, "componentType" : 5126, "count" : 84, "type" : "VEC3", "max" : [1.0000044107437134, 1.0000044107437134, 1.0000044107437134], "min" : [-1.0000044107437134, -1.0000044107437134, -1.0000044107437134], "name" : "NORMAL"}, {"bufferView" : 0, "byteOffset" : 240, "componentType" : 5123, "count" : 588, "type" : "SCALAR", "max" : [539], "min" : [0]}, {"bufferView" : 3, "byteOffset" : 0, "componentType" : 5126, "count" : 540, "type" : "VEC3", "max" : [2596, 15.684206008911133, 80.2001953125], "min" : [-2596, -4.7683701609457785E-07, 0], "name" : "POSITION"}, {"bufferView" : 3, "byteOffset" : 12, "componentType" : 5126, "count" : 540, "type" : "VEC3", "max" : [1.0000044107437134, 1.0000044107437134, 1.0000044107437134], "min" : [-1.0000044107437134, -1.0000039339065552, -1.0000044107437134], "name" : "NORMAL"}, {"bufferView" : 0, "byteOffset" : 1416, "componentType" : 5123, "count" : 9312, "type" : "SCALAR", "max" : [7765], "min" : [0]}, {"bufferView" : 4, "byteOffset" : 0, "componentType" : 5126, "count" : 7766, "type" : "VEC3", "max" : [233.49948120117188, 941.9996337890625, 23.999975204467773], "min" : [-233.50027465820312, 174.99972534179688, -0.00010849720274563879], "name" : "POSITION"}, {"bufferView" : 4, "byteOffset" : 12, "componentType" : 5126, "count" : 7766, "type" : "VEC3", "max" : [0.9983887672424316, 0.9983885288238525, 0.9969469308853149], "min" : [-0.9983885288238525, -0.9984036087989807, -0.9969451427459717], "name" : "NORMAL"}, {"bufferView" : 0, "byteOffset" : 20040, "componentType" : 5123, "count" : 36, "type" : "SCALAR", "max" : [35], "min" : [0]}, {"bufferView" : 5, "byteOffset" : 0, "componentType" : 5126, "count" : 36, "type" : "VEC3", "max" : [1905, 290.74969482421875, 40], "min" : [-1905, -309.25006103515625, 0], "name" : "POSITION"}, {"bufferView" : 5, "byteOffset" : 12, "componentType" : 5126, "count" : 36, "type" : "VEC3", "max" : [1.0000044107437134, 1.0000044107437134, 1.0000044107437134], "min" : [-1.0000044107437134, -1.0000044107437134, -1.0000044107437134], "name" : "NORMAL"}], "asset" : {"generator" : "Aspose.3D 23.4.0", "version" : "2.0"}, "buffers" : [{"uri" : "data:application/octet-stream;base64,", "byteLength" : 261480}], "bufferViews" : [{"buffer" : 0, "byteOffset" : 0, "byteLength" : 20112, "target" : 34963}, {"buffer" : 0, "byteOffset" : 20116, "byteLength" : 864, "byteStride" : 24, "target" : 34962}, {"buffer" : 0, "byteOffset" : 20984, "byteLength" : 2016, "byteStride" : 24, "target" : 34962}, {"buffer" : 0, "byteOffset" : 23004, "byteLength" : 14112, "byteStride" : 24, "target" : 34962}, {"buffer" : 0, "byteOffset" : 37120, "byteLength" : 223488, "byteStride" : 24, "target" : 34962}, {"buffer" : 0, "byteOffset" : 260612, "byteLength" : 864, "byteStride" : 24, "target" : 34962}], "materials" : [{"name" : "Wall_Paint", "pbrMetallicRoughness" : {"baseColorFactor" : [0.25801369547843933, 0.35797861218452454, 0.17844121158123016, 1], "metallicFactor" : 0, "roughnessFactor" : 0.6000000238418579}, "emissiveFactor" : [0, 0, 0], "alphaMode" : "OPAQUE", "doubleSided" : false}, {"name" : "Wall_Paint", "pbrMetallicRoughness" : {"baseColorFactor" : [0.25801369547843933, 0.35797861218452454, 0.17844121158123016, 1], "metallicFactor" : 0, "roughnessFactor" : 0.6000000238418579}, "emissiveFactor" : [0, 0, 0], "alphaMode" : "OPAQUE", "doubleSided" : false}, {"name" : "Wall_Paint", "pbrMetallicRoughness" : {"baseColorFactor" : [0.25801369547843933, 0.35797861218452454, 0.17844121158123016, 1], "metallicFactor" : 0, "roughnessFactor" : 0.6000000238418579}, "emissiveFactor" : [0, 0, 0], "alphaMode" : "OPAQUE", "doubleSided" : false}, {"name" : "Wall_Paint", "pbrMetallicRoughness" : {"baseColorFactor" : [0.25801369547843933, 0.35797861218452454, 0.17844121158123016, 1], "metallicFactor" : 0, "roughnessFactor" : 0.6000000238418579}, "emissiveFactor" : [0, 0, 0], "alphaMode" : "OPAQUE", "doubleSided" : false}, {"name" : "Wall_Paint", "pbrMetallicRoughness" : {"baseColorFactor" : [0.25801369547843933, 0.35797861218452454, 0.17844121158123016, 1], "metallicFactor" : 0, "roughnessFactor" : 0.6000000238418579}, "emissiveFactor" : [0, 0, 0], "alphaMode" : "OPAQUE", "doubleSided" : false}], "meshes" : [{"primitives" : [{"attributes" : {"POSITION" : 1, "NORMAL" : 2}, "indices" : 0, "material" : 0, "mode" : 4}]}, {"primitives" : [{"attributes" : {"POSITION" : 4, "NORMAL" : 5}, "indices" : 3, "material" : 1, "mode" : 4}]}, {"primitives" : [{"attributes" : {"POSITION" : 7, "NORMAL" : 8}, "indices" : 6, "material" : 2, "mode" : 4}]}, {"primitives" : [{"attributes" : {"POSITION" : 10, "NORMAL" : 11}, "indices" : 9, "material" : 3, "mode" : 4}]}, {"primitives" : [{"attributes" : {"POSITION" : 13, "NORMAL" : 14}, "indices" : 12, "material" : 4, "mode" : 4}]}], "nodes" : [{"matrix" : [0.001, 0, 0, 0, 0, 0.001, 0, 0, 0, 0, 0.001, 0, 0, 0, 0, 1], "mesh" : 0, "name" : "Box8222913"}, {"children" : [0], "matrix" : [1, 0, 0, 0, 0, 0, -1, 0, 0, 1, 0, 0, 1.708984375E-06, 0.6265672607421875, 0.288250244140625, 1], "name" : "Node #1"}, {"matrix" : [0.001, 0, 0, 0, 0, 0.001, 0, 0, 0, 0, 0.001, 0, 0, 0, 0, 1], "mesh" : 1, "name" : "Rectangle040"}, {"children" : [2], "matrix" : [0.4663979113101959, 0, 0, 0, 0, 0.9999999403953552, 0, 0, 0, 0, 0.9999999403953552, 0, -0.11131317138671876, 0.5805692138671875, 0.05525023651123047, 1], "name" : "Node #3"}, {"matrix" : [0.001, 0, 0, 0, 0, 0.001, 0, 0, 0, 0, 0.001, 0, 0, 0, 0, 1], "mesh" : 2, "name" : "SPR-5052"}, {"children" : [4], "matrix" : [0.09072806686162946, 0, 0, 0, 0, 0, -1, 0, 0, 1, 0, 0, -1.220703125E-07, 0.1252310791015625, 0.25725024414062503, 1], "name" : "Node #5"}, {"matrix" : [0.001, 0, 0, 0, 0, 0.001, 0, 0, 0, 0, 0.001, 0, 0, 0, 0, 1], "mesh" : 3, "name" : "Rectangle067"}, {"children" : [6], "matrix" : [1, 0, 0, 0, 0, 1, 0, 0, 0, 0, 1, 0, 1.708984375E-06, 0.0210672607421875, 0.2787501220703125, 1], "name" : "Node #7"}, {"matrix" : [0.001, 0, 0, 0, 0, 0.001, 0, 0, 0, 0, 0.001, 0, 0, 0, 0, 1], "mesh" : 4, "name" : "Box8222915"}, {"children" : [8], "matrix" : [0.12512443959712988, 0, 0, 0, 0, 0, -1, 0, 0, 1, 0, 0, 0, 0.9647689819335937, -0.012, 1], "name" : "Node #9"}], "scene" : 0, "scenes" : [{"nodes" : [1, 3, 5, 7, 9]}]}