{"accessors" : [{"bufferView" : 0, "byteOffset" : 0, "componentType" : 5123, "count" : 36, "type" : "SCALAR", "max" : [35], "min" : [0]}, {"bufferView" : 1, "byteOffset" : 0, "componentType" : 5126, "count" : 36, "type" : "VEC3", "max" : [290.4998474121094, 9.500016212463379, -335.0009765625], "min" : [-290.5001220703125, -9.500014305114746, -875.999755859375], "name" : "POSITION"}, {"bufferView" : 1, "byteOffset" : 12, "componentType" : 5126, "count" : 36, "type" : "VEC3", "max" : [1.0000044107437134, 1.0000044107437134, 1.0000044107437134], "min" : [-1.0000044107437134, -1.0000044107437134, -1.0000044107437134], "name" : "NORMAL"}, {"bufferView" : 0, "byteOffset" : 72, "componentType" : 5123, "count" : 84, "type" : "SCALAR", "max" : [83], "min" : [0]}, {"bufferView" : 2, "byteOffset" : 0, "componentType" : 5126, "count" : 84, "type" : "VEC3", "max" : [300.000244140625, 174.999267578125, 223.49974060058594], "min" : [-300.000244140625, -385.000244140625, -358.0003662109375], "name" : "POSITION"}, {"bufferView" : 2, "byteOffset" : 12, "componentType" : 5126, "count" : 84, "type" : "VEC3", "max" : [1.0000044107437134, 1.0000044107437134, 1.0000044107437134], "min" : [-1.0000044107437134, -1.0000044107437134, -1.0000044107437134], "name" : "NORMAL"}, {"bufferView" : 0, "byteOffset" : 240, "componentType" : 5123, "count" : 9312, "type" : "SCALAR", "max" : [8713], "min" : [0]}, {"bufferView" : 3, "byteOffset" : 0, "componentType" : 5126, "count" : 8714, "type" : "VEC3", "max" : [298.4998474121094, 278.4990234375, 24.00005531311035], "min" : [-298.5001220703125, -278.499755859375, -5.425069684861228E-05], "name" : "POSITION"}, {"bufferView" : 3, "byteOffset" : 12, "componentType" : 5126, "count" : 8714, "type" : "VEC3", "max" : [0.9983915090560913, 0.9983915090560913, 0.9969497919082642], "min" : [-0.9983924627304077, -0.9983915090560913, -0.9969465136528015], "name" : "NORMAL"}], "asset" : {"generator" : "Aspose.3D 23.4.0", "version" : "2.0"}, "buffers" : [{"uri" : "data:application/octet-stream;base64,", "byteLength" : 245248}], "bufferViews" : [{"buffer" : 0, "byteOffset" : 0, "byteLength" : 18864, "target" : 34963}, {"buffer" : 0, "byteOffset" : 18868, "byteLength" : 864, "byteStride" : 24, "target" : 34962}, {"buffer" : 0, "byteOffset" : 19736, "byteLength" : 2016, "byteStride" : 24, "target" : 34962}, {"buffer" : 0, "byteOffset" : 21756, "byteLength" : 223488, "byteStride" : 24, "target" : 34962}], "materials" : [{"name" : "M_03___Default", "pbrMetallicRoughness" : {"baseColorFactor" : [0.022085977718234062, 0.04740722104907036, 0.020293839275836945, 1], "metallicFactor" : 0, "roughnessFactor" : 0.46000000834465027}, "emissiveFactor" : [0, 0, 0], "alphaMode" : "OPAQUE", "doubleSided" : false}, {"name" : "M_03___Default.001", "pbrMetallicRoughness" : {"baseColorFactor" : [0.022085977718234062, 0.04740722104907036, 0.020293839275836945, 1], "metallicFactor" : 0, "roughnessFactor" : 0.46000000834465027}, "emissiveFactor" : [0, 0, 0], "alphaMode" : "OPAQUE", "doubleSided" : false}, {"name" : "M_03___Default.002", "pbrMetallicRoughness" : {"baseColorFactor" : [0.022085977718234062, 0.04740722104907036, 0.020293839275836945, 1], "metallicFactor" : 0, "roughnessFactor" : 0.46000000834465027}, "emissiveFactor" : [0, 0, 0], "alphaMode" : "OPAQUE", "doubleSided" : false}], "meshes" : [{"primitives" : [{"attributes" : {"POSITION" : 1, "NORMAL" : 2}, "indices" : 0, "material" : 0, "mode" : 4}]}, {"primitives" : [{"attributes" : {"POSITION" : 4, "NORMAL" : 5}, "indices" : 3, "material" : 1, "mode" : 4}]}, {"primitives" : [{"attributes" : {"POSITION" : 7, "NORMAL" : 8}, "indices" : 6, "material" : 2, "mode" : 4}]}], "nodes" : [{"matrix" : [0.0010000000474974513, 0, 0, 0, 0, 0.0010000000474974513, 0, 0, 0, 0, 0.0010000000474974513, 0, 0, 0, 0, 1], "mesh" : 0, "name" : "Box8222898"}, {"children" : [0], "matrix" : [1, 0, 0, 0, 0, -3.029462689596585E-07, -0.9999999657714298, 0, 0, 0.9999999657714298, -3.029462689596585E-07, 0, 0.30000004172325134, 3.060500383377075, 0.5900166034698486, 1], "name" : "Node #1"}, {"matrix" : [0.0010000000474974513, 0, 0, 0, 0, 0.0010000000474974513, 0, 0, 0, 0, 0.0010000000474974513, 0, 0, 0, 0.0012719632359221578, 1], "mesh" : 1, "name" : "Rectangle032"}, {"children" : [2], "matrix" : [1, 0, 0, 0, 0, 1, 0, 0, 0, 0, 1, 0, 0.30000004172325134, 2.560000419616699, 0.35701677203178406, 1], "name" : "Node #3"}, {"matrix" : [0.0010000000474974513, 0, 0, 0, 0, 0.0010000000474974513, 0, 0, 0, 0, 0.0010000000474974513, 0, 0, 0, 0, 1], "mesh" : 2, "name" : "Rectangle052"}, {"children" : [4], "matrix" : [1, 0, 0, 0, 0, 1, 0, 0, 0, 0, 1, 0, 0.30000004172325134, 2.455000400543213, 0.5805163979530334, 1], "name" : "Node #5"}], "scene" : 0, "scenes" : [{"nodes" : [1, 3, 5]}]}