{"accessors" : [{"bufferView" : 0, "byteOffset" : 0, "componentType" : 5123, "count" : 36, "type" : "SCALAR", "max" : [35], "min" : [0]}, {"bufferView" : 1, "byteOffset" : 0, "componentType" : 5126, "count" : 36, "type" : "VEC3", "max" : [290.4998474121094, 9.500014305114746, -271.500244140625], "min" : [-290.5002746582031, -9.50003433227539, -422.49981689453125], "name" : "POSITION"}, {"bufferView" : 1, "byteOffset" : 12, "componentType" : 5126, "count" : 36, "type" : "VEC3", "max" : [1.0000044107437134, 1.0000044107437134, 1.0000044107437134], "min" : [-1.0000044107437134, -1.0000044107437134, -1.0000044107437134], "name" : "NORMAL"}, {"bufferView" : 0, "byteOffset" : 72, "componentType" : 5123, "count" : 9312, "type" : "SCALAR", "max" : [7765], "min" : [0]}, {"bufferView" : 2, "byteOffset" : 0, "componentType" : 5126, "count" : 7766, "type" : "VEC3", "max" : [298.4998779296875, 341.9997863769531, 24.00004768371582], "min" : [-298.50030517578125, 174.99969482421875, -0.00010639732499839738], "name" : "POSITION"}, {"bufferView" : 2, "byteOffset" : 12, "componentType" : 5126, "count" : 7766, "type" : "VEC3", "max" : [0.9984017610549927, 0.9983952045440674, 0.9969424605369568], "min" : [-0.9983900785446167, -0.9984029531478882, -0.9969430565834045], "name" : "NORMAL"}, {"bufferView" : 0, "byteOffset" : 18696, "componentType" : 5123, "count" : 588, "type" : "SCALAR", "max" : [539], "min" : [0]}, {"bufferView" : 3, "byteOffset" : 0, "componentType" : 5126, "count" : 540, "type" : "VEC3", "max" : [2596, 15.684206008911133, 80.2001953125], "min" : [-2596, -4.7683701609457785E-07, 0], "name" : "POSITION"}, {"bufferView" : 3, "byteOffset" : 12, "componentType" : 5126, "count" : 540, "type" : "VEC3", "max" : [1.0000044107437134, 1.0000044107437134, 1.0000044107437134], "min" : [-1.0000044107437134, -1.0000039339065552, -1.0000044107437134], "name" : "NORMAL"}, {"bufferView" : 0, "byteOffset" : 19872, "componentType" : 5123, "count" : 84, "type" : "SCALAR", "max" : [83], "min" : [0]}, {"bufferView" : 4, "byteOffset" : 0, "componentType" : 5126, "count" : 84, "type" : "VEC3", "max" : [291.000244140625, -1385.89453125, 223.49974060058594], "min" : [-309, -1555.8955078125, -358.0003662109375], "name" : "POSITION"}, {"bufferView" : 4, "byteOffset" : 12, "componentType" : 5126, "count" : 84, "type" : "VEC3", "max" : [1.0000044107437134, 1.0000044107437134, 1.0000044107437134], "min" : [-1.0000044107437134, -1.0000044107437134, -1.0000044107437134], "name" : "NORMAL"}], "asset" : {"generator" : "Aspose.3D 23.4.0", "version" : "2.0"}, "buffers" : [{"uri" : "data:application/octet-stream;base64,", "byteLength" : 260540}], "bufferViews" : [{"buffer" : 0, "byteOffset" : 0, "byteLength" : 20040, "target" : 34963}, {"buffer" : 0, "byteOffset" : 20044, "byteLength" : 864, "byteStride" : 24, "target" : 34962}, {"buffer" : 0, "byteOffset" : 20912, "byteLength" : 223488, "byteStride" : 24, "target" : 34962}, {"buffer" : 0, "byteOffset" : 244404, "byteLength" : 14112, "byteStride" : 24, "target" : 34962}, {"buffer" : 0, "byteOffset" : 258520, "byteLength" : 2016, "byteStride" : 24, "target" : 34962}], "materials" : [{"name" : "Wall_Paint", "pbrMetallicRoughness" : {"baseColorFactor" : [0.25801369547843933, 0.35797861218452454, 0.17844121158123016, 1], "metallicFactor" : 0, "roughnessFactor" : 0.6000000238418579}, "emissiveFactor" : [0, 0, 0], "alphaMode" : "OPAQUE", "doubleSided" : false}, {"name" : "Wall_Paint", "pbrMetallicRoughness" : {"baseColorFactor" : [0.25801369547843933, 0.35797861218452454, 0.17844121158123016, 1], "metallicFactor" : 0, "roughnessFactor" : 0.6000000238418579}, "emissiveFactor" : [0, 0, 0], "alphaMode" : "OPAQUE", "doubleSided" : false}, {"name" : "Wall_Paint", "pbrMetallicRoughness" : {"baseColorFactor" : [0.25801369547843933, 0.35797861218452454, 0.17844121158123016, 1], "metallicFactor" : 0, "roughnessFactor" : 0.6000000238418579}, "emissiveFactor" : [0, 0, 0], "alphaMode" : "OPAQUE", "doubleSided" : false}, {"name" : "Wall_Paint", "pbrMetallicRoughness" : {"baseColorFactor" : [0.25801369547843933, 0.35797861218452454, 0.17844121158123016, 1], "metallicFactor" : 0, "roughnessFactor" : 0.6000000238418579}, "emissiveFactor" : [0, 0, 0], "alphaMode" : "OPAQUE", "doubleSided" : false}], "meshes" : [{"primitives" : [{"attributes" : {"POSITION" : 1, "NORMAL" : 2}, "indices" : 0, "material" : 0, "mode" : 4}]}, {"primitives" : [{"attributes" : {"POSITION" : 4, "NORMAL" : 5}, "indices" : 3, "material" : 1, "mode" : 4}]}, {"primitives" : [{"attributes" : {"POSITION" : 7, "NORMAL" : 8}, "indices" : 6, "material" : 2, "mode" : 4}]}, {"primitives" : [{"attributes" : {"POSITION" : 10, "NORMAL" : 11}, "indices" : 9, "material" : 3, "mode" : 4}]}], "nodes" : [{"matrix" : [0.001, 0, 0, 0, 0, 0.001, 0, 0, 0, 0, 0.001, 0, 0, 0, 0, 1], "mesh" : 0, "name" : "Box8222906"}, {"children" : [0], "matrix" : [1, 0, 0, 0, 0, 0, -1, 0, 0, 1, 0, 0, -1.220703125E-07, 0.620007080078125, 0.288250244140625, 1], "name" : "Node #1"}, {"matrix" : [0.001, 0, 0, 0, 0, 0.001, 0, 0, 0, 0, 0.001, 0, 0, 0, 0, 1], "mesh" : 1, "name" : "Rectangle060"}, {"children" : [2], "matrix" : [1, 0, 0, 0, 0, 1, 1.6292068494294654E-07, 0, 0, -1.6292068494294654E-07, 1, 0, -1.220703125E-07, 0.0145072021484375, 0.2787501220703125, 1], "name" : "Node #3"}, {"matrix" : [0.001, 0, 0, 0, 0, 0.001, 0, 0, 0, 0, 0.001, 0, 0, 0, 0, 1], "mesh" : 2, "name" : "SPR-5053"}, {"children" : [4], "matrix" : [0.11232055723667145, -5.355861532052586E-08, 5.355861532052586E-08, 0, 4.6338726633621263E-07, 0, -0.971793532371521, 0, 4.6338726633621263E-07, 0.971793532371521, 2.2096026722727424E-13, 0, 4.6234130859375E-06, 0.11199267578125001, 0.2572503662109375, 1], "name" : "Node #5"}, {"matrix" : [0.001, 0, 0, 0, 0, 0.001, 0, 0, 0, 0, 0.001, 0, 0, 0, 0, 1], "mesh" : 3, "name" : "Rectangle038"}, {"children" : [6], "matrix" : [1, 0, 0, 0, 0, 1, 1.6292068494294654E-07, 0, 0, -1.6292068494294654E-07, 1, 0, 0.0089998779296875, 1.74390234375, 0.05525048828125, 1], "name" : "Node #7"}], "scene" : 0, "scenes" : [{"nodes" : [1, 3, 5, 7]}]}