{"accessors" : [{"bufferView" : 0, "byteOffset" : 0, "componentType" : 5123, "count" : 36, "type" : "SCALAR", "max" : [35], "min" : [0]}, {"bufferView" : 1, "byteOffset" : 0, "componentType" : 5126, "count" : 36, "type" : "VEC3", "max" : [10, 1320, 600], "min" : [-10, -1320, 0], "name" : "POSITION"}, {"bufferView" : 1, "byteOffset" : 12, "componentType" : 5126, "count" : 36, "type" : "VEC3", "max" : [1.0000044107437134, 1.0000044107437134, 1.0000044107437134], "min" : [-1.0000044107437134, -1.0000044107437134, -1.0000044107437134], "name" : "NORMAL"}, {"bufferView" : 0, "byteOffset" : 72, "componentType" : 5123, "count" : 36, "type" : "SCALAR", "max" : [35], "min" : [0]}, {"bufferView" : 2, "byteOffset" : 0, "componentType" : 5126, "count" : 36, "type" : "VEC3", "max" : [340.5, 9.5, 0], "min" : [-340.5, -9.5, -1211], "name" : "POSITION"}, {"bufferView" : 2, "byteOffset" : 12, "componentType" : 5126, "count" : 36, "type" : "VEC3", "max" : [1.0000044107437134, 1.0000044107437134, 1.0000044107437134], "min" : [-1.0000044107437134, -1.0000044107437134, -1.0000044107437134], "name" : "NORMAL"}, {"bufferView" : 0, "byteOffset" : 144, "componentType" : 5123, "count" : 36, "type" : "SCALAR", "max" : [35], "min" : [0]}, {"bufferView" : 3, "byteOffset" : 0, "componentType" : 5126, "count" : 36, "type" : "VEC3", "max" : [340.5, 9.50001049041748, -230.00054931640625], "min" : [-340.5, -9.50001049041748, -980.9998779296875], "name" : "POSITION"}, {"bufferView" : 3, "byteOffset" : 12, "componentType" : 5126, "count" : 36, "type" : "VEC3", "max" : [1.0000044107437134, 1.0000044107437134, 1.0000044107437134], "min" : [-1.0000044107437134, -1.0000044107437134, -1.0000044107437134], "name" : "NORMAL"}, {"bufferView" : 0, "byteOffset" : 216, "componentType" : 5123, "count" : 36, "type" : "SCALAR", "max" : [35], "min" : [0]}, {"bufferView" : 4, "byteOffset" : 0, "componentType" : 5126, "count" : 36, "type" : "VEC3", "max" : [340.5, 9.500014305114746, -335.0009765625], "min" : [-340.5, -9.500014305114746, -875.999755859375], "name" : "POSITION"}, {"bufferView" : 4, "byteOffset" : 12, "componentType" : 5126, "count" : 36, "type" : "VEC3", "max" : [1.0000044107437134, 1.0000044107437134, 1.0000044107437134], "min" : [-1.0000044107437134, -1.0000044107437134, -1.0000044107437134], "name" : "NORMAL"}, {"bufferView" : 0, "byteOffset" : 288, "componentType" : 5123, "count" : 84, "type" : "SCALAR", "max" : [83], "min" : [0]}, {"bufferView" : 5, "byteOffset" : 0, "componentType" : 5126, "count" : 84, "type" : "VEC3", "max" : [350.0001220703125, 385.000244140625, 223.49974060058594], "min" : [-350.00006103515625, -385.000244140625, -358.0003662109375], "name" : "POSITION"}, {"bufferView" : 5, "byteOffset" : 12, "componentType" : 5126, "count" : 84, "type" : "VEC3", "max" : [1.0000044107437134, 1.0000044107437134, 1.0000044107437134], "min" : [-1.0000044107437134, -1.0000044107437134, -1.0000044107437134], "name" : "NORMAL"}, {"bufferView" : 0, "byteOffset" : 456, "componentType" : 5123, "count" : 84, "type" : "SCALAR", "max" : [83], "min" : [0]}, {"bufferView" : 6, "byteOffset" : 0, "componentType" : 5126, "count" : 84, "type" : "VEC3", "max" : [350.0001220703125, 844.999755859375, 223.49974060058594], "min" : [-350.00006103515625, -385.000244140625, -358.0003662109375], "name" : "POSITION"}, {"bufferView" : 6, "byteOffset" : 12, "componentType" : 5126, "count" : 84, "type" : "VEC3", "max" : [1.0000044107437134, 1.0000044107437134, 1.0000044107437134], "min" : [-1.0000044107437134, -1.0000044107437134, -1.0000044107437134], "name" : "NORMAL"}, {"bufferView" : 0, "byteOffset" : 624, "componentType" : 5123, "count" : 84, "type" : "SCALAR", "max" : [83], "min" : [0]}, {"bufferView" : 7, "byteOffset" : 0, "componentType" : 5126, "count" : 84, "type" : "VEC3", "max" : [350.0001220703125, 174.999267578125, 223.49974060058594], "min" : [-350.00006103515625, -385.000244140625, -358.0003662109375], "name" : "POSITION"}, {"bufferView" : 7, "byteOffset" : 12, "componentType" : 5126, "count" : 84, "type" : "VEC3", "max" : [1.0000044107437134, 1.0000044107437134, 1.0000044107437134], "min" : [-1.0000044107437134, -1.0000044107437134, -1.0000044107437134], "name" : "NORMAL"}, {"bufferView" : 0, "byteOffset" : 792, "componentType" : 5123, "count" : 5568, "type" : "SCALAR", "max" : [4669], "min" : [0]}, {"bufferView" : 8, "byteOffset" : 0, "componentType" : 5126, "count" : 4670, "type" : "VEC3", "max" : [348.5, 613.5, 24], "min" : [-348.5, -613.5, -3.716338596859714E-07], "name" : "POSITION"}, {"bufferView" : 8, "byteOffset" : 12, "componentType" : 5126, "count" : 4670, "type" : "VEC3", "max" : [0.9963318705558777, 0.9963215589523315, 0.9870864748954773], "min" : [-0.9963318705558777, -0.9963215589523315, -0.9956637024879456], "name" : "NORMAL"}, {"bufferView" : 0, "byteOffset" : 11928, "componentType" : 5123, "count" : 9312, "type" : "SCALAR", "max" : [7765], "min" : [0]}, {"bufferView" : 9, "byteOffset" : 0, "componentType" : 5126, "count" : 7766, "type" : "VEC3", "max" : [348.5, 383.49951171875, 24.00002098083496], "min" : [-348.5, -383.49993896484375, -2.748274891928304E-05], "name" : "POSITION"}, {"bufferView" : 9, "byteOffset" : 12, "componentType" : 5126, "count" : 7766, "type" : "VEC3", "max" : [0.9983887076377869, 0.9983755350112915, 0.9969446063041687], "min" : [-0.9983888864517212, -0.9983898997306824, -0.9969429969787598], "name" : "NORMAL"}, {"bufferView" : 0, "byteOffset" : 30552, "componentType" : 5123, "count" : 9312, "type" : "SCALAR", "max" : [7765], "min" : [0]}, {"bufferView" : 10, "byteOffset" : 0, "componentType" : 5126, "count" : 7766, "type" : "VEC3", "max" : [348.5, 278.4990234375, 24.00005531311035], "min" : [-348.5, -278.499755859375, -5.4250700486591086E-05], "name" : "POSITION"}, {"bufferView" : 10, "byteOffset" : 12, "componentType" : 5126, "count" : 7766, "type" : "VEC3", "max" : [0.9983888268470764, 0.9983898997306824, 0.9969447255134583], "min" : [-0.9983898997306824, -0.9983898997306824, -0.9969430565834045], "name" : "NORMAL"}, {"bufferView" : 0, "byteOffset" : 49176, "componentType" : 5123, "count" : 588, "type" : "SCALAR", "max" : [539], "min" : [0]}, {"bufferView" : 11, "byteOffset" : 0, "componentType" : 5126, "count" : 540, "type" : "VEC3", "max" : [2596, 15.684206008911133, 80.2001953125], "min" : [-2596, -4.7683701609457785E-07, 0], "name" : "POSITION"}, {"bufferView" : 11, "byteOffset" : 12, "componentType" : 5126, "count" : 540, "type" : "VEC3", "max" : [1.0000044107437134, 1.0000044107437134, 1.0000044107437134], "min" : [-1.0000044107437134, -1.0000039339065552, -1.0000044107437134], "name" : "NORMAL"}], "asset" : {"generator" : "Aspose.3D 23.4.0", "version" : "2.0"}, "buffers" : [{"uri" : "data:application/octet-stream;base64,", "byteLength" : 654624}], "bufferViews" : [{"buffer" : 0, "byteOffset" : 0, "byteLength" : 50352, "target" : 34963}, {"buffer" : 0, "byteOffset" : 50356, "byteLength" : 864, "byteStride" : 24, "target" : 34962}, {"buffer" : 0, "byteOffset" : 51224, "byteLength" : 864, "byteStride" : 24, "target" : 34962}, {"buffer" : 0, "byteOffset" : 52092, "byteLength" : 864, "byteStride" : 24, "target" : 34962}, {"buffer" : 0, "byteOffset" : 52960, "byteLength" : 864, "byteStride" : 24, "target" : 34962}, {"buffer" : 0, "byteOffset" : 53828, "byteLength" : 2016, "byteStride" : 24, "target" : 34962}, {"buffer" : 0, "byteOffset" : 55848, "byteLength" : 2016, "byteStride" : 24, "target" : 34962}, {"buffer" : 0, "byteOffset" : 57868, "byteLength" : 2016, "byteStride" : 24, "target" : 34962}, {"buffer" : 0, "byteOffset" : 59888, "byteLength" : 133632, "byteStride" : 24, "target" : 34962}, {"buffer" : 0, "byteOffset" : 193524, "byteLength" : 223488, "byteStride" : 24, "target" : 34962}, {"buffer" : 0, "byteOffset" : 417016, "byteLength" : 223488, "byteStride" : 24, "target" : 34962}, {"buffer" : 0, "byteOffset" : 640508, "byteLength" : 14112, "byteStride" : 24, "target" : 34962}], "materials" : [{"name" : "Wall_Paint", "pbrMetallicRoughness" : {"baseColorFactor" : [0.25801369547843933, 0.35797861218452454, 0.17844121158123016, 1], "metallicFactor" : 0, "roughnessFactor" : 0.6000000238418579}, "emissiveFactor" : [0, 0, 0], "alphaMode" : "OPAQUE", "doubleSided" : false}, {"name" : "Wall_Paint", "pbrMetallicRoughness" : {"baseColorFactor" : [0.25801369547843933, 0.35797861218452454, 0.17844121158123016, 1], "metallicFactor" : 0, "roughnessFactor" : 0.6000000238418579}, "emissiveFactor" : [0, 0, 0], "alphaMode" : "OPAQUE", "doubleSided" : false}, {"name" : "Wall_Paint", "pbrMetallicRoughness" : {"baseColorFactor" : [0.25801369547843933, 0.35797861218452454, 0.17844121158123016, 1], "metallicFactor" : 0, "roughnessFactor" : 0.6000000238418579}, "emissiveFactor" : [0, 0, 0], "alphaMode" : "OPAQUE", "doubleSided" : false}, {"name" : "Wall_Paint", "pbrMetallicRoughness" : {"baseColorFactor" : [0.25801369547843933, 0.35797861218452454, 0.17844121158123016, 1], "metallicFactor" : 0, "roughnessFactor" : 0.6000000238418579}, "emissiveFactor" : [0, 0, 0], "alphaMode" : "OPAQUE", "doubleSided" : false}, {"name" : "Wall_Paint", "pbrMetallicRoughness" : {"baseColorFactor" : [0.25801369547843933, 0.35797861218452454, 0.17844121158123016, 1], "metallicFactor" : 0, "roughnessFactor" : 0.6000000238418579}, "emissiveFactor" : [0, 0, 0], "alphaMode" : "OPAQUE", "doubleSided" : false}, {"name" : "Wall_Paint", "pbrMetallicRoughness" : {"baseColorFactor" : [0.25801369547843933, 0.35797861218452454, 0.17844121158123016, 1], "metallicFactor" : 0, "roughnessFactor" : 0.6000000238418579}, "emissiveFactor" : [0, 0, 0], "alphaMode" : "OPAQUE", "doubleSided" : false}, {"name" : "Wall_Paint", "pbrMetallicRoughness" : {"baseColorFactor" : [0.25801369547843933, 0.35797861218452454, 0.17844121158123016, 1], "metallicFactor" : 0, "roughnessFactor" : 0.6000000238418579}, "emissiveFactor" : [0, 0, 0], "alphaMode" : "OPAQUE", "doubleSided" : false}, {"name" : "Wall_Paint", "pbrMetallicRoughness" : {"baseColorFactor" : [0.25801369547843933, 0.35797861218452454, 0.17844121158123016, 1], "metallicFactor" : 0, "roughnessFactor" : 0.6000000238418579}, "emissiveFactor" : [0, 0, 0], "alphaMode" : "OPAQUE", "doubleSided" : false}, {"name" : "Wall_Paint", "pbrMetallicRoughness" : {"baseColorFactor" : [0.25801369547843933, 0.35797861218452454, 0.17844121158123016, 1], "metallicFactor" : 0, "roughnessFactor" : 0.6000000238418579}, "emissiveFactor" : [0, 0, 0], "alphaMode" : "OPAQUE", "doubleSided" : false}, {"name" : "Wall_Paint", "pbrMetallicRoughness" : {"baseColorFactor" : [0.25801369547843933, 0.35797861218452454, 0.17844121158123016, 1], "metallicFactor" : 0, "roughnessFactor" : 0.6000000238418579}, "emissiveFactor" : [0, 0, 0], "alphaMode" : "OPAQUE", "doubleSided" : false}, {"name" : "Wall_Paint", "pbrMetallicRoughness" : {"baseColorFactor" : [0.25801369547843933, 0.35797861218452454, 0.17844121158123016, 1], "metallicFactor" : 0, "roughnessFactor" : 0.6000000238418579}, "emissiveFactor" : [0, 0, 0], "alphaMode" : "OPAQUE", "doubleSided" : false}], "meshes" : [{"primitives" : [{"attributes" : {"POSITION" : 1, "NORMAL" : 2}, "indices" : 0, "material" : 0, "mode" : 4}]}, {"primitives" : [{"attributes" : {"POSITION" : 4, "NORMAL" : 5}, "indices" : 3, "material" : 1, "mode" : 4}]}, {"primitives" : [{"attributes" : {"POSITION" : 7, "NORMAL" : 8}, "indices" : 6, "material" : 2, "mode" : 4}]}, {"primitives" : [{"attributes" : {"POSITION" : 10, "NORMAL" : 11}, "indices" : 9, "material" : 3, "mode" : 4}]}, {"primitives" : [{"attributes" : {"POSITION" : 13, "NORMAL" : 14}, "indices" : 12, "material" : 4, "mode" : 4}]}, {"primitives" : [{"attributes" : {"POSITION" : 16, "NORMAL" : 17}, "indices" : 15, "material" : 5, "mode" : 4}]}, {"primitives" : [{"attributes" : {"POSITION" : 19, "NORMAL" : 20}, "indices" : 18, "material" : 6, "mode" : 4}]}, {"primitives" : [{"attributes" : {"POSITION" : 22, "NORMAL" : 23}, "indices" : 21, "material" : 7, "mode" : 4}]}, {"primitives" : [{"attributes" : {"POSITION" : 25, "NORMAL" : 26}, "indices" : 24, "material" : 8, "mode" : 4}]}, {"primitives" : [{"attributes" : {"POSITION" : 28, "NORMAL" : 29}, "indices" : 27, "material" : 9, "mode" : 4}]}, {"primitives" : [{"attributes" : {"POSITION" : 31, "NORMAL" : 32}, "indices" : 30, "material" : 10, "mode" : 4}]}], "nodes" : [{"matrix" : [0.001, 0, 0, 0, 0, 0.001, 0, 0, 0, 0, 0.001, 0, 0, 0, 0, 1], "mesh" : 0, "name" : "Box8222857"}, {"children" : [0], "matrix" : [1, 0, 0, 0, 0, 1, 1.6292068494294654E-07, 0, 0, -1.6292068494294654E-07, 1, 0, -0.358341796875, 1.42, -0.3027498779296875, 1], "name" : "Node #1"}, {"matrix" : [0.001, 0, 0, 0, 0, 0.001, 0, 0, 0, 0, 0.001, 0, 0, 0, 0, 1], "mesh" : 1, "name" : "Box8222890"}, {"children" : [2], "matrix" : [1, 0, 0, 0, 0, 0, -1, 0, 0, 1, 0, 0, 0.001658203125, 2.168216796875, 0.28825018310546874, 1], "name" : "Node #3"}, {"matrix" : [0.001, 0, 0, 0, 0, 0.001, 0, 0, 0, 0, 0.001, 0, 0, 0, 0, 1], "mesh" : 2, "name" : "Box8222891"}, {"children" : [4], "matrix" : [1, 0, 0, 0, 0, 0, -1, 0, 0, 1, 0, 0, 0.001658203125, 1.1682167968750001, 0.28825018310546874, 1], "name" : "Node #5"}, {"matrix" : [0.001, 0, 0, 0, 0, 0.001, 0, 0, 0, 0, 0.001, 0, 0, 0, 0, 1], "mesh" : 3, "name" : "Box8222892"}, {"children" : [6], "matrix" : [1, 0, 0, 0, 0, 0, -1, 0, 0, 1, 0, 0, 0.001658203125, 3.0632177734375, 0.28825018310546874, 1], "name" : "Node #7"}, {"matrix" : [0.001, 0, 0, 0, 0, 0.001, 0, 0, 0, 0, 0.001, 0, 0, 0, 0, 1], "mesh" : 0, "name" : "Box8222857"}, {"children" : [8], "matrix" : [1, 0, 0, 0, 0, 1, 1.6292068494294654E-07, 0, 0, -1.6292068494294654E-07, 1, 0, 0.358341796875, 1.42, -0.3027498779296875, 1], "name" : "Node #9"}, {"matrix" : [0.001, 0, 0, 0, 0, 0.001, 0, 0, 0, 0, 0.001, 0, 0, 0, 0, 1], "mesh" : 4, "name" : "Rectangle024"}, {"children" : [10], "matrix" : [1, 0, 0, 0, 0, 1, 1.6292068494294654E-07, 0, 0, -1.6292068494294654E-07, 1, 0, 0.001658203125, 0.562716796875, 0.0552503662109375, 1], "name" : "Node #11"}, {"matrix" : [0.001, 0, 0, 0, 0, 0.001, 0, 0, 0, 0, 0.001, 0, 0, 0, 0, 1], "mesh" : 5, "name" : "Rectangle025"}, {"children" : [12], "matrix" : [1, 0, 0, 0, 0, 1, 1.6292068494294654E-07, 0, 0, -1.6292068494294654E-07, 1, 0, 0.001658203125, 1.3327177734375, 0.0552503662109375, 1], "name" : "Node #13"}, {"matrix" : [0.001, 0, 0, 0, 0, 0.001, 0, 0, 0, 0, 0.001, 0, 0, 0, 0, 1], "mesh" : 6, "name" : "Rectangle026"}, {"children" : [14], "matrix" : [1, 0, 0, 0, 0, 1, 1.6292068494294654E-07, 0, 0, -1.6292068494294654E-07, 1, 0, 0.001658203125, 2.5627177734375, 0.0552503662109375, 1], "name" : "Node #15"}, {"matrix" : [0.001, 0, 0, 0, 0, 0.001, 0, 0, 0, 0, 0.001, 0, 0, 0, 0, 1], "mesh" : 7, "name" : "Rectangle044"}, {"children" : [16], "matrix" : [1, 0, 0, 0, 0, 1, 1.6292068494294654E-07, 0, 0, -1.6292068494294654E-07, 1, 0, 0.001658203125, 1.562716796875, 0.27875006103515626, 1], "name" : "Node #17"}, {"matrix" : [0.001, 0, 0, 0, 0, 0.001, 0, 0, 0, 0, 0.001, 0, 0, 0, 0, 1], "mesh" : 8, "name" : "Rectangle045"}, {"children" : [18], "matrix" : [1, 0, 0, 0, 0, 1, 1.6292068494294654E-07, 0, 0, -1.6292068494294654E-07, 1, 0, 0.001658203125, 0.562716796875, 0.27875006103515626, 1], "name" : "Node #19"}, {"matrix" : [0.001, 0, 0, 0, 0, 0.001, 0, 0, 0, 0, 0.001, 0, 0, 0, 0, 1], "mesh" : 9, "name" : "Rectangle046"}, {"children" : [20], "matrix" : [1, 0, 0, 0, 0, 1, 1.6292068494294654E-07, 0, 0, -1.6292068494294654E-07, 1, 0, 0.001658203125, 2.4577177734375, 0.27875006103515626, 1], "name" : "Node #21"}, {"matrix" : [0.001, 0, 0, 0, 0, 0.001, 0, 0, 0, 0, 0.001, 0, 0, 0, 0, 1], "mesh" : 10, "name" : "SPR-5051"}, {"children" : [22], "matrix" : [0.1343080699443817, 0, 0, 0, 0, 0, -1, 0, 0, 1, 0, 0, 0.0008828125, 0.10413671875, 0.2572501220703125, 1], "name" : "Node #23"}], "scene" : 0, "scenes" : [{"nodes" : [1, 3, 5, 7, 9, 11, 13, 15, 17, 19, 21, 23]}]}