{"accessors" : [{"bufferView" : 0, "byteOffset" : 0, "componentType" : 5123, "count" : 36, "type" : "SCALAR", "max" : [35], "min" : [0]}, {"bufferView" : 1, "byteOffset" : 0, "componentType" : 5126, "count" : 36, "type" : "VEC3", "max" : [233.25, 159.99966430664062, 18], "min" : [-233.25, -140.00027465820312, 0], "name" : "POSITION"}, {"bufferView" : 1, "byteOffset" : 12, "componentType" : 5126, "count" : 36, "type" : "VEC3", "max" : [1.0000044107437134, 1.0000044107437134, 1.0000044107437134], "min" : [-1.0000044107437134, -1.0000044107437134, -1.0000044107437134], "name" : "NORMAL"}, {"bufferView" : 0, "byteOffset" : 72, "componentType" : 5123, "count" : 84, "type" : "SCALAR", "max" : [83], "min" : [0]}, {"bufferView" : 2, "byteOffset" : 0, "componentType" : 5126, "count" : 84, "type" : "VEC3", "max" : [140.3480987548828, 300.0002746582031, 757.5001831054688], "min" : [-439.652587890625, -39.9998779296875, 254.99978637695312], "name" : "POSITION"}, {"bufferView" : 2, "byteOffset" : 12, "componentType" : 5126, "count" : 84, "type" : "VEC3", "max" : [1.0000044107437134, 1.0000044107437134, 1.0000044107437134], "min" : [-1.0000044107437134, -1.0000044107437134, -1.0000044107437134], "name" : "NORMAL"}, {"bufferView" : 0, "byteOffset" : 240, "componentType" : 5123, "count" : 5748, "type" : "SCALAR", "max" : [5365], "min" : [0]}, {"bufferView" : 3, "byteOffset" : 0, "componentType" : 5126, "count" : 5366, "type" : "VEC3", "max" : [141.03961181640625, -477.44097900390625, -218.00027465820312], "min" : [-437.4607238769531, -976.9412231445312, -240.0003662109375], "name" : "POSITION"}, {"bufferView" : 3, "byteOffset" : 12, "componentType" : 5126, "count" : 5366, "type" : "VEC3", "max" : [1.0000044107437134, 1.0000044107437134, 1.0000044107437134], "min" : [-1.0000044107437134, -1.0000044107437134, -1.0000044107437134], "name" : "NORMAL"}, {"bufferView" : 0, "byteOffset" : 11736, "componentType" : 5123, "count" : 9312, "type" : "SCALAR", "max" : [8826], "min" : [0]}, {"bufferView" : 4, "byteOffset" : 0, "componentType" : 5126, "count" : 8827, "type" : "VEC3", "max" : [249.75, 278.4990234375, 24.00005531311035], "min" : [-249.75, -278.499755859375, -5.425069684861228E-05], "name" : "POSITION"}, {"bufferView" : 4, "byteOffset" : 12, "componentType" : 5126, "count" : 8827, "type" : "VEC3", "max" : [0.9983994960784912, 0.9983994960784912, 0.9969497919082642], "min" : [-0.9983994960784912, -0.9983994960784912, -0.9969465136528015], "name" : "NORMAL"}, {"bufferView" : 0, "byteOffset" : 30360, "componentType" : 5123, "count" : 36, "type" : "SCALAR", "max" : [35], "min" : [0]}, {"bufferView" : 5, "byteOffset" : 0, "componentType" : 5126, "count" : 36, "type" : "VEC3", "max" : [241.75, 9.500015258789062, -335.0009765625], "min" : [-241.75, -9.500014305114746, -875.999755859375], "name" : "POSITION"}, {"bufferView" : 5, "byteOffset" : 12, "componentType" : 5126, "count" : 36, "type" : "VEC3", "max" : [1.0000044107437134, 1.0000044107437134, 1.0000044107437134], "min" : [-1.0000044107437134, -1.0000044107437134, -1.0000044107437134], "name" : "NORMAL"}, {"bufferView" : 0, "byteOffset" : 30432, "componentType" : 5123, "count" : 84, "type" : "SCALAR", "max" : [83], "min" : [0]}, {"bufferView" : 6, "byteOffset" : 0, "componentType" : 5126, "count" : 84, "type" : "VEC3", "max" : [251.25, 174.999267578125, 223.49974060058594], "min" : [-251.25, -385.000244140625, -358.0003662109375], "name" : "POSITION"}, {"bufferView" : 6, "byteOffset" : 12, "componentType" : 5126, "count" : 84, "type" : "VEC3", "max" : [1.0000044107437134, 1.0000044107437134, 1.0000044107437134], "min" : [-1.0000044107437134, -1.0000044107437134, -1.0000044107437134], "name" : "NORMAL"}], "asset" : {"generator" : "Aspose.3D 23.4.0", "version" : "2.0"}, "buffers" : [{"uri" : "data:application/octet-stream;base64,", "byteLength" : 397828}], "bufferViews" : [{"buffer" : 0, "byteOffset" : 0, "byteLength" : 30600, "target" : 34963}, {"buffer" : 0, "byteOffset" : 30604, "byteLength" : 864, "byteStride" : 24, "target" : 34962}, {"buffer" : 0, "byteOffset" : 31472, "byteLength" : 2016, "byteStride" : 24, "target" : 34962}, {"buffer" : 0, "byteOffset" : 33492, "byteLength" : 137952, "byteStride" : 24, "target" : 34962}, {"buffer" : 0, "byteOffset" : 171448, "byteLength" : 223488, "byteStride" : 24, "target" : 34962}, {"buffer" : 0, "byteOffset" : 394940, "byteLength" : 864, "byteStride" : 24, "target" : 34962}, {"buffer" : 0, "byteOffset" : 395808, "byteLength" : 2016, "byteStride" : 24, "target" : 34962}], "materials" : [{"name" : "M_03___Default", "pbrMetallicRoughness" : {"baseColorFactor" : [0.022085977718234062, 0.04740722104907036, 0.020293839275836945, 1], "metallicFactor" : 0, "roughnessFactor" : 0.46000000834465027}, "emissiveFactor" : [0, 0, 0], "alphaMode" : "OPAQUE", "doubleSided" : false}, {"name" : "M_03___Default.001", "pbrMetallicRoughness" : {"baseColorFactor" : [0.022085977718234062, 0.04740722104907036, 0.020293839275836945, 1], "metallicFactor" : 0, "roughnessFactor" : 0.46000000834465027}, "emissiveFactor" : [0, 0, 0], "alphaMode" : "OPAQUE", "doubleSided" : false}, {"name" : "M_03___Default.002", "pbrMetallicRoughness" : {"baseColorFactor" : [0.022085977718234062, 0.04740722104907036, 0.020293839275836945, 1], "metallicFactor" : 0, "roughnessFactor" : 0.46000000834465027}, "emissiveFactor" : [0, 0, 0], "alphaMode" : "OPAQUE", "doubleSided" : false}, {"name" : "M_03___Default.003", "pbrMetallicRoughness" : {"baseColorFactor" : [0.022085977718234062, 0.04740722104907036, 0.020293839275836945, 1], "metallicFactor" : 0, "roughnessFactor" : 0.46000000834465027}, "emissiveFactor" : [0, 0, 0], "alphaMode" : "OPAQUE", "doubleSided" : false}, {"name" : "M_03___Default.004", "pbrMetallicRoughness" : {"baseColorFactor" : [0.022085977718234062, 0.04740722104907036, 0.020293839275836945, 1], "metallicFactor" : 0, "roughnessFactor" : 0.46000000834465027}, "emissiveFactor" : [0, 0, 0], "alphaMode" : "OPAQUE", "doubleSided" : false}, {"name" : "M_03___Default.005", "pbrMetallicRoughness" : {"baseColorFactor" : [0.022085977718234062, 0.04740722104907036, 0.020293839275836945, 1], "metallicFactor" : 0, "roughnessFactor" : 0.46000000834465027}, "emissiveFactor" : [0, 0, 0], "alphaMode" : "OPAQUE", "doubleSided" : false}], "meshes" : [{"primitives" : [{"attributes" : {"POSITION" : 1, "NORMAL" : 2}, "indices" : 0, "material" : 0, "mode" : 4}]}, {"primitives" : [{"attributes" : {"POSITION" : 4, "NORMAL" : 5}, "indices" : 3, "material" : 1, "mode" : 4}]}, {"primitives" : [{"attributes" : {"POSITION" : 7, "NORMAL" : 8}, "indices" : 6, "material" : 2, "mode" : 4}]}, {"primitives" : [{"attributes" : {"POSITION" : 10, "NORMAL" : 11}, "indices" : 9, "material" : 3, "mode" : 4}]}, {"primitives" : [{"attributes" : {"POSITION" : 13, "NORMAL" : 14}, "indices" : 12, "material" : 4, "mode" : 4}]}, {"primitives" : [{"attributes" : {"POSITION" : 16, "NORMAL" : 17}, "indices" : 15, "material" : 5, "mode" : 4}]}], "nodes" : [{"matrix" : [0.0010000000474974513, 0, 0, 0, 0, 0.0010000000474974513, 0, 0, 0, 0, 0.0010000000474974513, 0, 0, 0, 0, 1], "mesh" : 0, "name" : "Box8222882"}, {"children" : [0], "matrix" : [0.9572760462760925, 0, 0, 0, 0, -3.029462689596585E-07, -0.9999999657714298, 0, 0, 0.9999999657714298, -3.029462689596585E-07, 0, 0.239973247051239, 1.8802499771118164, 0.17997410893440247, 1], "name" : "Node #1"}, {"matrix" : [0.0010000000474974513, 0, 0, 0, 0, 0.0010000000474974513, 0, 0, 0, 0, 0.0010000000474974513, 0, 0, 0, 0, 1], "mesh" : 1, "name" : "Box8222873"}, {"children" : [2], "matrix" : [0, -1, 0, 0, 0, 0, -1, 0, 0.9572760462760925, 0, 0, 0, -0.2446478009223938, 1.7403477430343628, 0.299974262714386, 1], "name" : "Node #3"}, {"matrix" : [0.0010000000474974513, 0, 0, 0, 0, 0.0010000000474974513, 0, 0, 0, 0, 0.0010000000474974513, 0, 0, 0, 0, 1], "mesh" : 2, "name" : "Rectangle017"}, {"children" : [4], "matrix" : [5.399906513048336E-07, -0.9999999657713943, 0, 0, 0.9572758346959399, 5.169200191492904E-07, 0, 0, 0, 0, 1, 0, 0.9360958933830261, 1.7410391569137573, 0.5799744129180908, 1], "name" : "Node #5"}, {"matrix" : [0.0010000000474974513, 0, 0, 0, 0, 0.0010000000474974513, 0, 0, 0, 0, 0.0010000000474974513, 0, 0, 0, 0, 1], "mesh" : 3, "name" : "Rectangle047"}, {"children" : [6], "matrix" : [0.9572760462760925, 0, 0, 0, 0, 1, 0, 0, 0, 0, 1, 0, 0.239973247051239, 2.460001230239868, 0.5814740061759949, 1], "name" : "Node #7"}, {"matrix" : [0.0010000000474974513, 0, 0, 0, 0, 0.0010000000474974513, 0, 0, 0, 0, 0.0010000000474974513, 0, 0, 0, 0, 1], "mesh" : 4, "name" : "Box8222893"}, {"children" : [8], "matrix" : [0.9572760462760925, 0, 0, 0, 0, -3.029462689596585E-07, -0.9999999657714298, 0, 0, 0.9999999657714298, -3.029462689596585E-07, 0, 0.239973247051239, 3.0655012130737305, 0.590973973274231, 1], "name" : "Node #9"}, {"matrix" : [0.0010000000474974513, 0, 0, 0, 0, 0.0010000000474974513, 0, 0, 0, 0, 0.0010000000474974513, 0, 0, 0, 0, 1], "mesh" : 5, "name" : "Rectangle027"}, {"children" : [10], "matrix" : [0.9572760462760925, 0, 0, 0, 0, 1, 0, 0, 0, 0, 1, 0, 0.239973247051239, 2.5650012493133545, 0.35797423124313354, 1], "name" : "Node #11"}], "scene" : 0, "scenes" : [{"nodes" : [1, 3, 5, 7, 9, 11]}]}