{"accessors" : [{"bufferView" : 0, "byteOffset" : 0, "componentType" : 5123, "count" : 36, "type" : "SCALAR", "max" : [35], "min" : [0]}, {"bufferView" : 1, "byteOffset" : 0, "componentType" : 5126, "count" : 36, "type" : "VEC3", "max" : [290.4998474121094, 9.500014305114746, -271.500244140625], "min" : [-290.5002746582031, -9.50003433227539, -422.49981689453125], "name" : "POSITION"}, {"bufferView" : 1, "byteOffset" : 12, "componentType" : 5126, "count" : 36, "type" : "VEC3", "max" : [1.0000044107437134, 1.0000044107437134, 1.0000044107437134], "min" : [-1.0000044107437134, -1.0000044107437134, -1.0000044107437134], "name" : "NORMAL"}, {"bufferView" : 0, "byteOffset" : 72, "componentType" : 5123, "count" : 9312, "type" : "SCALAR", "max" : [8702], "min" : [0]}, {"bufferView" : 2, "byteOffset" : 0, "componentType" : 5126, "count" : 8703, "type" : "VEC3", "max" : [298.4998779296875, 341.9997863769531, 24.00004768371582], "min" : [-298.50030517578125, 174.99969482421875, -0.00010639732499839738], "name" : "POSITION"}, {"bufferView" : 2, "byteOffset" : 12, "componentType" : 5126, "count" : 8703, "type" : "VEC3", "max" : [0.998404860496521, 0.9984004497528076, 0.9969465136528015], "min" : [-0.9983950853347778, -0.9984093904495239, -0.9969465136528015], "name" : "NORMAL"}, {"bufferView" : 0, "byteOffset" : 18696, "componentType" : 5123, "count" : 588, "type" : "SCALAR", "max" : [561], "min" : [0]}, {"bufferView" : 3, "byteOffset" : 0, "componentType" : 5126, "count" : 562, "type" : "VEC3", "max" : [2596, 15.684206008911133, 80.2001953125], "min" : [-2596, -4.7683701609457785E-07, 0], "name" : "POSITION"}, {"bufferView" : 3, "byteOffset" : 12, "componentType" : 5126, "count" : 562, "type" : "VEC3", "max" : [1.0000044107437134, 1.0000044107437134, 1.0000044107437134], "min" : [-1.0000044107437134, -1.0000039339065552, -1.0000044107437134], "name" : "NORMAL"}, {"bufferView" : 0, "byteOffset" : 19872, "componentType" : 5123, "count" : 84, "type" : "SCALAR", "max" : [83], "min" : [0]}, {"bufferView" : 4, "byteOffset" : 0, "componentType" : 5126, "count" : 84, "type" : "VEC3", "max" : [291.000244140625, -1385.89453125, 223.49974060058594], "min" : [-309, -1555.8955078125, -358.0003662109375], "name" : "POSITION"}, {"bufferView" : 4, "byteOffset" : 12, "componentType" : 5126, "count" : 84, "type" : "VEC3", "max" : [1.0000044107437134, 1.0000044107437134, 1.0000044107437134], "min" : [-1.0000044107437134, -1.0000044107437134, -1.0000044107437134], "name" : "NORMAL"}], "asset" : {"generator" : "Aspose.3D 23.4.0", "version" : "2.0"}, "buffers" : [{"uri" : "data:application/octet-stream;base64,", "byteLength" : 260540}], "bufferViews" : [{"buffer" : 0, "byteOffset" : 0, "byteLength" : 20040, "target" : 34963}, {"buffer" : 0, "byteOffset" : 20044, "byteLength" : 864, "byteStride" : 24, "target" : 34962}, {"buffer" : 0, "byteOffset" : 20912, "byteLength" : 223488, "byteStride" : 24, "target" : 34962}, {"buffer" : 0, "byteOffset" : 244404, "byteLength" : 14112, "byteStride" : 24, "target" : 34962}, {"buffer" : 0, "byteOffset" : 258520, "byteLength" : 2016, "byteStride" : 24, "target" : 34962}], "materials" : [{"name" : "Wall_Paint", "pbrMetallicRoughness" : {"baseColorFactor" : [0.25801369547843933, 0.35797861218452454, 0.17844121158123016, 1], "metallicFactor" : 0, "roughnessFactor" : 0.6000000238418579}, "emissiveFactor" : [0, 0, 0], "alphaMode" : "OPAQUE", "doubleSided" : false}, {"name" : "Wall_Paint.001", "pbrMetallicRoughness" : {"baseColorFactor" : [0.25801369547843933, 0.35797861218452454, 0.17844121158123016, 1], "metallicFactor" : 0, "roughnessFactor" : 0.6000000238418579}, "emissiveFactor" : [0, 0, 0], "alphaMode" : "OPAQUE", "doubleSided" : false}, {"name" : "Wall_Paint.002", "pbrMetallicRoughness" : {"baseColorFactor" : [0.25801369547843933, 0.35797861218452454, 0.17844121158123016, 1], "metallicFactor" : 0, "roughnessFactor" : 0.6000000238418579}, "emissiveFactor" : [0, 0, 0], "alphaMode" : "OPAQUE", "doubleSided" : false}, {"name" : "Wall_Paint.003", "pbrMetallicRoughness" : {"baseColorFactor" : [0.25801369547843933, 0.35797861218452454, 0.17844121158123016, 1], "metallicFactor" : 0, "roughnessFactor" : 0.6000000238418579}, "emissiveFactor" : [0, 0, 0], "alphaMode" : "OPAQUE", "doubleSided" : false}], "meshes" : [{"primitives" : [{"attributes" : {"POSITION" : 1, "NORMAL" : 2}, "indices" : 0, "material" : 0, "mode" : 4}]}, {"primitives" : [{"attributes" : {"POSITION" : 4, "NORMAL" : 5}, "indices" : 3, "material" : 1, "mode" : 4}]}, {"primitives" : [{"attributes" : {"POSITION" : 7, "NORMAL" : 8}, "indices" : 6, "material" : 2, "mode" : 4}]}, {"primitives" : [{"attributes" : {"POSITION" : 10, "NORMAL" : 11}, "indices" : 9, "material" : 3, "mode" : 4}]}], "nodes" : [{"matrix" : [0.0010000000474974513, 0, 0, 0, 0, 0.0010000000474974513, 0, 0, 0, 0, 0.0010000000474974513, 0, 0, 0, 0, 1], "mesh" : 0, "name" : "Box8222906"}, {"children" : [0], "matrix" : [1, 0, 0, 0, 0, -3.029462689596585E-07, -0.9999999657714298, 0, 0, 0.9999999657714298, -3.029462689596585E-07, 0, 0.2999998927116394, 0.6200070977210999, 0.5910401940345764, 1], "name" : "Node #1"}, {"matrix" : [0.0010000000474974513, 0, 0, 0, 0, 0.0010000000474974513, 0, 0, 0, 0, 0.0010000000474974513, 0, 0, 0, 0, 1], "mesh" : 1, "name" : "Rectangle060"}, {"children" : [2], "matrix" : [1, 0, 0, 0, 0, 1, 0, 0, 0, 0, 1, 0, 0.2999998927116394, 0.014507202431559563, 0.581540048122406, 1], "name" : "Node #3"}, {"matrix" : [0.0010000000474974513, 0, 0, 0, 0, 0.0010000000474974513, 0, 0, 0, 0, 0.0010000000474974513, 0, 0, 0, 0, 1], "mesh" : 2, "name" : "SPR-5053"}, {"children" : [4], "matrix" : [0.11232055723667145, 0, 0, 0, 0, -2.944012609450889E-07, -0.9717936183177033, 0, 0, 0.9717936183177033, -2.944012609450889E-07, 0, 0.30000463128089905, 0.11199267208576202, 0.560040295124054, 1], "name" : "Node #5"}, {"matrix" : [0.0010000000474974513, 0, 0, 0, 0, 0.0010000000474974513, 0, 0, 0, 0, 0.0010000000474974513, 0, 0, 0, 0, 1], "mesh" : 3, "name" : "Rectangle038"}, {"children" : [6], "matrix" : [1, 0, 0, 0, 0, 1, 0, 0, 0, 0, 1, 0, 0.3089998960494995, 1.743902325630188, 0.358040452003479, 1], "name" : "Node #7"}], "scene" : 0, "scenes" : [{"nodes" : [1, 3, 5, 7]}]}